{"glyphs":{"0":{"ha":743,"x_min":36,"x_max":708,"o":"m 372 674 q 501 647 440 674 q 608 575 563 621 q 681 468 654 529 q 708 336 708 407 q 682 206 708 267 q 610 100 656 146 q 504 28 565 54 q 372 1 443 1 q 242 26 303 1 q 135 97 181 51 q 63 203 89 142 q 36 336 36 264 q 62 466 36 406 q 133 572 88 526 q 240 644 178 617 q 372 674 301 671 m 372 492 q 313 480 340 492 q 263 447 285 468 q 229 398 242 426 q 217 336 217 369 q 229 276 217 304 q 263 226 242 247 q 313 192 285 204 q 372 179 340 179 q 433 192 404 179 q 482 226 461 204 q 515 276 503 247 q 528 336 528 304 q 482 444 525 400 q 372 492 439 489 z "},"1":{"ha":396,"x_min":10,"x_max":344,"o":"m 344 92 q 318 27 344 54 q 254 0 292 0 l 238 0 q 172 27 199 0 q 146 92 146 54 l 146 424 q 83 418 117 408 q 29 461 47 428 q 19 530 10 493 q 63 586 28 567 q 246 681 208 681 q 315 651 286 681 q 344 582 344 622 l 344 92 z "},"2":{"ha":676,"x_min":40,"x_max":636,"o":"m 397 401 q 422 442 421 418 q 399 488 421 472 q 336 501 378 503 q 269 481 299 501 q 222 429 240 460 q 188 390 207 406 q 138 374 168 374 q 71 401 99 374 q 43 468 43 429 q 73 551 43 506 q 160 630 103 596 q 257 672 218 664 q 325 679 296 679 q 448 664 399 679 q 537 616 497 649 q 601 539 576 583 q 625 436 625 494 q 549 294 625 350 l 401 188 l 543 188 q 608 161 581 188 q 636 94 636 135 q 608 28 636 56 q 543 0 581 0 l 136 0 q 88 15 110 1 q 53 50 67 29 q 42 107 40 71 q 89 174 43 143 l 397 401 z "},"3":{"ha":683,"x_min":36,"x_max":646,"o":"m 588 653 q 615 583 615 622 q 589 517 615 544 l 454 382 q 551 318 508 358 q 620 220 594 276 q 646 99 646 164 q 622 -23 646 33 q 555 -122 597 -79 q 456 -188 513 -164 q 335 -212 399 -212 q 240 -200 283 -212 q 158 -165 197 -187 q 88 -112 119 -143 q 44 -42 57 -81 q 39 4 36 -19 q 53 47 42 28 q 84 79 64 67 q 131 92 104 92 q 194 64 167 92 q 222 36 211 51 q 244 7 232 21 q 274 -16 257 -7 q 335 -25 292 -25 q 423 10 388 -25 q 458 99 458 46 q 423 185 458 150 q 335 221 388 221 l 285 221 q 268 219 276 219 q 256 221 261 219 l 257 221 l 256 221 q 203 249 225 225 q 174 315 174 276 q 201 381 174 353 l 313 493 l 165 493 q 99 521 125 493 q 72 588 72 549 q 99 655 72 628 q 165 682 125 682 l 506 682 q 529 679 518 682 q 588 653 561 676 z "},"4":{"ha":639,"x_min":18,"x_max":624,"o":"m 624 94 q 598 30 624 57 q 536 0 572 3 l 536 -137 q 508 -190 536 -162 q 440 -217 481 -217 q 376 -190 403 -217 q 349 -137 349 -162 l 349 0 l 111 0 q 45 27 72 0 q 18 94 18 54 l 18 96 l 172 621 q 222 674 190 657 q 290 678 254 692 q 347 626 328 664 q 346 554 365 589 l 224 188 l 349 188 q 377 251 350 225 q 440 278 404 278 q 508 251 481 278 q 536 188 535 225 q 598 158 572 185 q 624 94 624 131 z "},"5":{"ha":678,"x_min":43,"x_max":643,"o":"m 332 414 q 449 389 393 413 q 549 324 506 365 q 617 226 592 282 q 643 104 643 169 q 619 -23 643 33 q 552 -122 594 -79 q 453 -188 510 -164 q 332 -212 396 -212 q 248 -200 288 -212 q 169 -165 208 -187 q 99 -112 131 -143 q 56 -42 68 -81 q 50 4 47 -19 q 64 47 53 28 q 95 79 75 67 q 142 92 115 92 q 206 64 178 92 q 233 36 222 51 q 256 7 243 21 q 285 -16 268 -7 q 332 -25 303 -25 q 420 10 385 -25 q 456 104 456 46 q 420 191 456 156 q 332 226 385 226 l 138 226 q 72 253 101 226 q 43 319 43 281 l 43 586 q 71 653 43 626 q 138 681 99 681 l 482 681 q 549 653 522 681 q 576 586 576 626 q 549 520 576 547 q 482 493 522 493 l 226 493 l 226 414 l 332 414 z "},"6":{"ha":735,"x_min":28,"x_max":711,"o":"m 201 46 q 102 134 142 79 q 45 251 63 189 q 35 381 28 314 q 76 506 43 447 l 281 861 q 336 899 300 892 q 401 889 372 906 q 444 833 435 869 q 436 767 454 797 l 385 676 q 536 628 463 671 q 639 539 599 593 q 695 423 679 485 q 703 295 711 361 q 660 169 694 229 q 572 69 625 108 q 456 13 518 29 q 327 3 393 -4 q 201 46 261 11 m 235 415 q 215 358 218 388 q 219 299 211 328 q 244 245 226 271 q 292 203 263 219 q 349 184 319 188 q 408 188 379 181 q 461 214 436 196 q 503 260 486 232 q 522 318 518 288 q 519 378 526 349 q 494 432 511 407 q 447 474 476 457 q 390 492 421 489 q 331 489 360 496 q 276 463 301 482 q 235 415 251 444 z "},"7":{"ha":696,"x_min":36,"x_max":683,"o":"m 288 -165 q 222 -206 261 -200 q 150 -192 182 -212 q 110 -134 118 -171 q 124 -65 103 -97 l 426 493 l 129 493 q 64 519 92 493 q 36 586 36 546 q 64 653 36 625 q 129 681 92 681 l 590 681 q 638 665 617 679 q 672 630 660 651 q 683 586 683 608 q 668 529 683 564 l 288 -165 z "},"8":{"ha":694,"x_min":33,"x_max":663,"o":"m 349 439 q 299 429 321 439 q 260 403 278 419 q 233 363 243 386 q 222 314 222 340 q 233 264 222 286 q 260 224 243 242 q 299 197 278 207 q 349 186 321 186 q 397 197 375 186 q 436 224 419 207 q 463 264 453 242 q 474 314 474 286 q 436 401 471 365 q 349 439 401 436 m 350 732 q 303 714 322 732 q 282 669 283 696 q 301 618 282 636 q 350 600 319 600 q 395 619 376 600 q 414 665 414 639 q 395 713 414 693 q 350 732 376 732 m 347 893 q 503 825 439 893 q 568 665 568 757 q 543 560 568 608 q 569 536 557 549 q 638 437 613 494 q 663 314 663 379 q 638 192 663 249 q 571 92 613 135 q 472 25 529 50 q 349 0 414 0 q 226 24 283 0 q 126 90 168 47 q 58 189 83 132 q 33 314 33 246 q 58 435 33 378 q 124 533 82 492 q 143 551 133 543 q 117 676 117 603 q 189 830 121 767 q 347 893 257 893 z "},"9":{"ha":735,"x_min":24,"x_max":707,"o":"m 533 636 q 633 548 593 603 q 690 431 672 493 q 699 301 707 368 q 658 176 692 235 l 454 -179 q 399 -217 435 -210 q 333 -207 363 -224 q 290 -151 300 -187 q 299 -85 281 -115 l 350 6 q 199 54 272 11 q 96 143 136 89 q 40 259 56 197 q 32 387 24 321 q 75 513 40 453 q 163 613 110 574 q 279 669 217 653 q 408 678 342 686 q 533 636 474 671 m 500 267 q 520 324 517 294 q 516 383 524 354 q 490 437 508 411 q 443 479 472 463 q 385 498 415 494 q 327 494 356 501 q 274 468 299 486 q 232 422 249 450 q 213 364 217 394 q 216 304 208 333 q 241 250 224 275 q 288 208 258 225 q 344 190 314 193 q 404 193 375 186 q 458 219 433 200 q 500 267 483 238 z "},"e":{"ha":736,"x_min":35,"x_max":708,"o":"m 371 672 q 499 644 438 672 q 606 570 560 617 q 681 463 653 524 q 708 336 708 403 q 681 279 708 300 q 614 260 654 258 l 244 260 q 371 181 290 181 q 408 185 393 181 q 435 194 424 189 q 459 204 447 200 q 486 208 471 208 q 537 192 515 207 q 569 153 558 176 q 576 104 579 131 q 551 56 572 78 q 468 13 514 25 q 371 0 422 1 q 243 24 304 -3 q 135 98 182 51 q 62 207 89 144 q 35 336 35 269 q 62 463 35 401 q 135 570 89 524 q 242 644 181 617 q 371 672 303 672 m 497 414 q 442 474 474 457 q 371 492 410 492 q 299 474 331 492 q 244 414 268 457 l 497 414 z "},"f":{"ha":526,"x_min":21,"x_max":507,"o":"m 408 888 q 476 865 449 888 q 507 799 504 843 q 481 738 507 763 q 417 710 456 713 q 371 689 388 708 q 354 643 354 669 l 354 507 q 442 478 418 504 q 467 415 467 453 q 443 353 467 378 q 354 325 419 328 l 354 46 q 341 -32 354 6 q 304 -99 328 -69 q 248 -153 281 -129 q 174 -189 215 -176 q 122 -197 149 -197 q 74 -185 96 -196 q 38 -156 53 -175 q 21 -106 22 -136 q 47 -44 21 -69 q 108 -17 72 -18 q 155 3 136 -17 q 174 49 174 24 l 174 325 q 86 350 108 325 q 61 415 64 375 q 85 477 61 451 q 174 507 108 503 l 174 644 q 192 735 174 692 q 242 813 210 779 q 317 867 274 847 q 408 888 360 888 z "},"h":{"ha":746,"x_min":51,"x_max":725,"o":"m 142 882 q 203 857 178 882 q 232 792 229 832 l 232 632 q 307 661 264 653 q 389 669 350 669 q 518 644 457 669 q 625 575 579 619 q 698 471 671 531 q 725 343 725 411 l 725 89 q 699 25 725 51 q 635 -3 674 -1 q 574 22 599 -3 q 543 83 549 46 l 543 333 q 531 392 543 364 q 499 442 519 421 q 450 476 478 464 q 389 489 422 489 q 283 446 326 489 q 232 340 239 403 l 232 89 q 206 25 232 51 q 142 -3 181 -1 q 83 22 107 -3 q 51 83 58 46 l 51 797 q 78 857 54 832 q 142 882 103 882 z "},"g":{"ha":743,"x_min":32,"x_max":704,"o":"m 413 -253 l 368 -253 q 307 -282 333 -256 q 241 -308 279 -308 q 175 -281 203 -308 q 147 -220 149 -256 q 168 -158 144 -185 q 290 -82 210 -106 q 368 -69 326 -71 l 471 -69 q 504 -51 492 -67 q 525 33 535 -6 l 525 35 q 462 10 497 19 q 368 0 426 0 q 233 25 294 0 q 126 94 171 50 q 57 201 82 139 q 32 336 32 263 q 60 465 32 404 q 134 572 88 526 q 241 645 181 618 q 368 672 301 672 q 499 646 438 672 q 606 574 560 619 q 677 467 651 528 q 703 336 703 406 q 663 169 703 242 q 703 -7 703 115 q 685 -95 704 -47 q 635 -176 667 -143 q 561 -230 604 -210 q 468 -253 518 -250 l 421 -253 l 413 -253 m 368 492 q 310 478 338 492 q 260 444 282 465 q 226 394 239 422 q 213 336 213 367 q 224 277 213 306 q 257 227 236 249 q 306 192 278 206 q 368 179 335 179 q 431 192 401 179 q 481 226 460 204 q 513 276 501 249 q 525 336 525 304 q 512 397 525 368 q 477 446 499 425 q 427 479 456 467 q 368 492 399 492 z "},"i":{"ha":278,"x_min":49,"x_max":228,"o":"m 140 881 q 202 853 176 881 q 228 790 228 826 q 202 727 228 754 q 140 700 176 700 q 74 726 100 701 q 49 794 49 750 q 77 856 50 831 q 140 881 104 881 m 140 668 q 201 642 176 668 q 228 578 225 615 l 228 86 q 204 24 228 49 q 140 -4 181 -1 q 79 18 104 -4 q 49 81 54 40 l 49 583 q 78 643 51 619 q 140 668 104 667 z "},"j":{"ha":390,"x_min":14,"x_max":347,"o":"m 258 668 q 319 642 294 668 q 346 578 343 615 l 346 46 q 334 -32 347 6 q 297 -99 321 -69 q 241 -153 274 -129 q 167 -189 208 -176 q 115 -197 142 -197 q 67 -185 89 -196 q 31 -156 46 -175 q 14 -106 15 -136 q 40 -44 14 -69 q 101 -17 65 -18 q 148 3 129 -17 q 167 49 167 24 l 167 583 q 196 643 169 619 q 258 668 222 667 m 258 881 q 320 853 294 881 q 346 790 346 826 q 320 727 346 754 q 258 700 294 700 q 192 726 218 701 q 167 794 167 750 q 195 856 168 831 q 258 881 222 881 z "},"k":{"ha":635,"x_min":50,"x_max":617,"o":"m 238 179 l 238 93 q 210 28 238 57 q 144 0 182 0 q 79 27 108 0 q 50 93 50 54 l 50 794 q 78 859 50 831 q 144 888 106 888 q 210 860 183 888 q 238 794 238 833 l 238 446 l 447 656 q 513 683 475 683 q 579 656 550 682 q 607 590 607 628 q 579 524 607 551 l 447 390 l 596 142 q 607 70 617 107 q 565 14 597 33 q 493 3 531 -7 q 436 46 456 13 l 311 254 l 238 179 z "},"l":{"ha":399,"x_min":44,"x_max":383,"o":"m 136 883 q 199 857 174 883 q 228 792 225 831 l 228 243 q 246 196 228 215 q 292 176 264 176 q 355 151 328 176 q 383 89 382 126 q 360 30 383 56 q 301 -1 338 4 l 282 -1 q 190 19 233 -1 q 115 72 147 39 q 63 150 82 106 q 44 243 44 194 l 44 797 q 74 857 49 832 q 136 883 99 882 z "},"m":{"ha":900,"x_min":47,"x_max":853,"o":"m 296 672 q 377 659 338 672 q 450 618 417 646 q 606 672 517 672 q 699 653 654 672 q 778 603 744 635 q 833 526 813 571 q 853 432 853 482 l 853 83 q 825 25 853 50 q 761 0 797 0 q 698 27 725 0 q 671 90 671 54 l 671 428 q 652 472 671 454 q 606 490 633 490 q 562 474 582 490 q 542 428 542 458 l 542 263 q 515 199 542 225 q 450 172 488 172 q 388 197 415 172 q 360 256 360 221 l 360 428 q 339 473 358 456 q 296 490 319 490 q 251 472 269 490 q 231 426 232 454 l 231 82 q 202 24 228 49 q 140 0 176 0 q 104 7 121 0 q 75 26 88 14 q 55 56 63 39 q 49 90 47 72 l 49 432 q 68 524 49 481 q 121 601 88 568 q 199 653 154 633 q 296 672 244 672 z "},"n":{"ha":760,"x_min":43,"x_max":717,"o":"m 381 676 q 508 652 447 676 q 615 584 569 628 q 689 481 661 540 q 717 351 717 421 l 717 94 q 691 32 717 58 q 628 4 665 6 q 563 28 590 4 q 536 90 536 53 l 536 340 q 524 401 536 372 q 491 450 513 429 q 441 483 469 471 q 379 496 413 496 q 321 484 349 496 q 272 453 293 472 q 239 406 251 433 q 226 347 226 378 l 226 94 q 199 31 226 58 q 135 4 171 4 q 71 29 99 4 q 43 90 43 54 l 43 340 q 70 471 44 410 q 141 578 96 532 q 247 650 186 624 q 381 676 308 676 z "},"o":{"ha":743,"x_min":36,"x_max":708,"o":"m 372 674 q 501 647 440 674 q 608 575 563 621 q 681 468 654 529 q 708 336 708 407 q 682 206 708 267 q 610 100 656 146 q 504 28 565 54 q 372 1 443 1 q 242 26 303 1 q 135 97 181 51 q 63 203 89 142 q 36 336 36 264 q 62 466 36 406 q 133 572 88 526 q 240 644 178 617 q 372 674 301 671 m 372 492 q 313 480 340 492 q 263 447 285 468 q 229 398 242 426 q 217 336 217 369 q 229 276 217 304 q 263 226 242 247 q 313 192 285 204 q 372 179 340 179 q 433 192 404 179 q 482 226 461 204 q 515 276 503 247 q 528 336 528 304 q 482 444 525 400 q 372 492 439 489 z "},"p":{"ha":735,"x_min":44,"x_max":718,"o":"m 382 672 q 511 646 450 672 q 618 574 572 619 q 691 467 664 528 q 718 336 718 406 q 692 206 718 267 q 622 99 667 144 q 515 26 576 53 q 382 0 453 0 q 226 35 296 0 l 226 -125 q 200 -187 226 -161 q 135 -214 174 -214 q 73 -190 100 -214 q 44 -129 46 -165 l 44 336 q 72 465 44 404 q 144 572 99 526 q 251 645 190 618 q 382 672 313 672 m 226 336 q 239 273 226 301 q 273 224 251 244 q 323 191 294 203 q 382 179 351 179 q 443 192 415 179 q 492 226 471 204 q 524 276 513 247 q 536 336 536 304 q 524 397 536 368 q 490 446 511 425 q 442 478 469 467 q 382 490 414 490 q 320 478 349 490 q 271 444 292 465 q 238 396 250 424 q 226 336 226 368 z "},"q":{"ha":736,"x_min":17,"x_max":690,"o":"m 353 674 q 483 647 421 674 q 590 574 544 619 q 663 467 636 528 q 690 338 690 406 l 690 -128 q 662 -188 689 -164 q 600 -212 635 -212 q 535 -186 561 -212 q 508 -124 508 -160 l 508 36 q 353 1 439 1 q 220 28 282 1 q 113 100 158 54 q 42 207 68 146 q 17 338 17 268 q 43 468 17 407 q 115 575 69 529 q 222 647 161 621 q 353 674 283 674 m 508 338 q 497 397 508 369 q 464 446 485 425 q 415 479 443 467 q 353 492 386 492 q 293 480 321 492 q 244 447 265 468 q 211 398 224 426 q 199 338 199 369 q 210 277 199 306 q 243 227 222 249 q 292 193 264 206 q 353 181 319 181 q 412 192 383 181 q 462 225 440 204 q 496 274 483 246 q 508 338 508 303 z "},"r":{"ha":476,"x_min":39,"x_max":467,"o":"m 129 -1 q 67 23 92 -1 q 39 88 42 47 l 39 344 q 67 470 40 411 q 140 573 94 529 q 245 642 185 617 q 374 671 306 668 q 438 644 413 671 q 467 581 464 618 q 440 517 467 543 q 375 490 414 492 q 315 478 343 490 q 267 446 288 467 q 233 397 246 425 q 221 335 221 368 l 221 82 q 194 22 218 46 q 129 -1 169 -1 z "},"s":{"ha":890,"x_min":19,"x_max":853,"o":"m 751 575 q 824 467 799 528 q 851 344 850 407 q 831 218 853 281 q 760 107 808 156 l 744 92 q 642 25 694 47 q 511 1 582 0 q 382 26 440 1 q 276 99 324 51 q 259 128 265 113 q 254 160 253 143 q 263 192 256 176 q 282 219 269 208 q 345 246 307 246 q 410 219 383 246 q 511 182 450 182 q 572 193 544 181 q 622 226 600 206 q 656 276 644 247 q 668 338 668 306 l 668 346 q 657 396 667 371 q 622 447 646 424 q 573 481 601 469 q 516 493 544 492 q 459 483 488 494 q 410 451 431 472 l 178 219 q 114 194 153 194 q 50 221 75 194 q 22 283 24 246 q 46 346 19 321 l 275 575 q 386 649 325 624 q 512 674 447 674 q 638 650 576 675 q 751 575 700 625 z "},"t":{"ha":667,"x_min":44,"x_max":656,"o":"m 139 888 q 204 860 178 888 q 233 793 231 833 l 233 682 l 472 682 q 538 654 513 682 q 563 589 563 626 q 535 524 563 553 q 472 496 507 496 l 233 496 l 233 343 q 245 283 233 311 q 278 232 257 254 q 327 197 299 210 q 389 185 356 185 q 451 194 425 185 q 496 224 476 204 q 560 249 525 249 q 626 222 596 250 q 647 194 640 210 q 655 160 654 178 q 650 126 656 143 q 632 97 644 110 q 525 25 583 50 q 400 0 467 0 q 264 24 328 0 q 151 94 200 49 q 74 202 103 139 q 44 343 46 265 l 44 800 q 73 863 44 838 q 139 888 101 888 z "},"u":{"ha":761,"x_min":43,"x_max":718,"o":"m 133 674 q 197 647 169 674 q 225 581 225 619 l 225 336 q 238 276 225 304 q 271 226 250 247 q 320 193 292 206 q 381 181 349 181 q 439 192 411 181 q 488 222 467 203 q 522 269 510 242 q 535 329 535 297 l 535 582 q 561 644 535 617 q 625 674 588 672 q 690 647 663 674 q 718 586 717 619 l 718 336 q 692 206 718 267 q 619 99 665 144 q 513 26 574 53 q 381 0 451 0 q 253 23 314 -3 q 145 94 192 49 q 71 199 99 139 q 43 326 43 260 l 43 582 q 69 645 43 618 q 133 674 94 672 z "},"w":{"ha":901,"x_min":47,"x_max":853,"o":"m 296 0 q 199 19 244 0 q 121 72 154 39 q 68 148 88 104 q 49 240 49 192 l 49 582 q 55 617 47 600 q 75 646 63 633 q 104 665 88 658 q 140 672 121 672 q 202 648 176 672 q 231 590 228 624 l 231 246 q 251 200 232 218 q 296 182 269 182 q 339 199 319 182 q 360 244 358 217 l 360 417 q 388 476 360 451 q 450 500 415 500 q 515 474 488 500 q 542 410 542 447 l 542 244 q 562 198 542 214 q 606 182 582 182 q 652 200 633 182 q 671 244 671 218 l 671 582 q 698 645 671 618 q 761 672 725 672 q 825 647 797 672 q 853 589 853 622 l 853 240 q 833 146 853 190 q 778 69 813 101 q 699 19 744 38 q 606 0 654 0 q 450 54 517 0 q 377 13 417 26 q 296 0 338 0 z "},"v":{"ha":628,"x_min":24,"x_max":604,"o":"m 538 668 q 589 619 574 653 q 589 549 604 585 l 401 58 q 372 22 394 43 q 317 0 349 0 q 264 13 289 0 q 228 58 239 26 l 39 549 q 39 619 24 585 q 90 668 54 653 q 161 667 126 682 q 211 615 196 651 l 314 349 l 417 615 q 467 667 432 651 q 538 668 503 682 z "},"x":{"ha":765,"x_min":46,"x_max":721,"o":"m 568 646 q 630 672 594 672 q 693 644 665 671 q 718 582 718 619 q 693 518 718 544 l 513 336 l 693 154 q 719 91 718 129 q 693 25 721 53 q 630 0 668 0 q 564 29 592 0 l 383 207 l 203 25 q 140 0 178 3 q 75 25 103 -3 q 48 87 50 50 q 72 151 46 124 l 257 336 l 72 521 q 49 582 46 547 q 75 644 51 617 q 140 672 106 675 q 203 644 175 669 l 383 464 l 568 646 z "},"y":{"ha":693,"x_min":26,"x_max":667,"o":"m 26 457 l 26 581 q 53 647 26 619 q 118 674 81 674 q 185 647 158 674 q 213 581 213 619 l 213 457 q 251 362 213 400 q 346 324 289 324 q 442 362 403 324 q 481 457 481 400 l 481 581 q 508 647 481 619 q 572 674 535 674 q 640 647 613 674 q 667 581 667 619 l 667 457 l 667 456 q 649 352 667 401 q 601 263 632 303 q 528 193 571 222 q 436 150 486 164 l 436 -121 q 409 -187 436 -160 q 344 -214 382 -214 q 277 -187 304 -214 q 250 -121 250 -160 l 250 151 q 160 196 201 167 q 90 265 119 225 q 43 354 60 306 q 26 457 26 403 z "},"z":{"ha":772,"x_min":47,"x_max":724,"o":"m 635 672 q 697 646 671 672 q 724 583 724 617 q 697 519 724 546 q 683 506 690 513 q 669 492 676 499 q 515 337 592 414 q 358 182 438 260 l 635 182 q 697 154 669 181 q 724 89 724 125 q 697 26 724 56 q 635 0 668 0 l 631 0 l 178 0 l 143 0 l 139 0 q 76 26 103 0 q 50 89 49 54 q 75 151 47 126 l 414 492 l 143 492 l 139 492 q 76 519 101 494 q 50 583 47 546 q 76 646 49 618 q 139 672 101 672 l 635 672 z "},"c":{"ha":667,"x_min":33,"x_max":631,"o":"m 371 672 q 607 575 510 672 q 628 513 631 549 q 601 453 626 476 q 538 428 576 429 q 474 453 499 426 q 371 492 431 492 q 310 478 339 492 q 260 444 282 465 q 226 394 239 422 q 214 336 214 367 q 226 276 214 304 q 261 226 239 247 q 311 192 283 204 q 371 181 339 179 q 474 218 432 181 q 538 246 499 246 q 601 218 576 246 q 621 192 614 207 q 628 160 628 176 q 624 127 629 143 q 607 99 618 111 q 500 25 558 50 q 371 0 442 0 q 240 27 301 0 q 133 100 179 54 q 60 207 88 146 q 33 336 33 268 q 60 464 33 403 q 134 571 88 525 q 242 644 181 617 q 371 672 303 672 z "},"a":{"ha":753,"x_min":36,"x_max":710,"o":"m 413 671 q 530 635 475 664 q 624 560 585 606 q 687 458 664 515 q 710 336 710 400 l 710 90 q 682 26 710 53 q 619 0 654 0 q 542 44 571 0 q 529 38 535 42 q 518 32 524 35 q 450 8 485 17 q 374 0 414 0 q 188 56 269 0 q 65 201 106 113 q 44 267 51 233 q 36 336 36 300 q 44 406 36 372 q 65 471 51 439 q 188 617 106 561 q 374 672 269 672 q 394 672 385 672 q 413 671 403 672 m 372 181 q 433 192 404 181 q 482 225 461 204 q 515 274 503 246 q 528 336 528 303 q 515 395 528 367 q 481 445 503 424 q 431 479 460 467 q 372 492 403 492 q 314 479 342 492 q 265 445 286 467 q 231 395 243 424 q 218 336 218 367 q 231 276 218 304 q 266 226 244 247 q 315 193 288 206 q 372 181 343 181 z "},"d":{"ha":736,"x_min":17,"x_max":690,"o":"m 600 885 q 663 859 636 885 q 690 793 690 833 l 690 336 q 663 207 690 268 q 590 100 636 146 q 482 27 543 54 q 354 0 421 0 q 226 26 288 0 q 119 99 165 53 q 44 206 72 144 q 17 336 17 267 q 44 465 17 404 q 117 572 71 526 q 225 645 164 618 q 354 672 286 672 q 508 635 438 672 l 508 794 q 516 829 508 813 q 536 858 524 846 q 565 878 549 871 q 600 885 582 885 m 354 492 q 294 479 322 492 q 244 445 265 467 q 210 395 222 424 q 197 336 197 367 q 210 276 197 304 q 244 226 222 247 q 294 193 265 206 q 354 181 322 181 q 413 193 385 181 q 462 227 440 206 q 496 276 483 249 q 508 336 508 304 q 496 398 508 369 q 462 447 483 426 q 413 480 440 468 q 354 492 385 492 z "},"!":{"ha":283,"x_min":47,"x_max":235,"o":"m 235 93 q 207 28 235 56 q 143 0 179 0 q 75 28 103 0 q 47 93 47 56 q 75 160 47 132 q 143 188 103 188 q 207 160 179 188 q 235 93 235 132 m 143 888 q 207 860 179 888 q 235 793 235 833 l 235 325 q 207 258 235 285 q 143 231 179 231 q 75 258 103 231 q 47 325 47 285 l 47 793 q 75 860 47 833 q 143 888 103 888 z "},"\"":{"ha":515,"x_min":49,"x_max":467,"o":"m 143 888 q 210 860 183 888 q 236 794 236 833 l 236 621 q 210 555 236 582 q 143 528 183 528 q 76 555 104 528 q 49 621 49 582 l 49 794 q 76 860 49 833 q 143 888 104 888 m 374 888 q 440 860 414 888 q 467 794 467 833 l 467 621 q 440 555 467 582 q 374 528 414 528 q 307 555 335 528 q 279 621 279 582 l 279 794 q 307 860 279 833 q 374 888 335 888 z "},"$":{"ha":743,"x_min":29,"x_max":714,"o":"m 375 982 q 444 953 415 982 q 474 888 472 925 l 600 888 q 664 860 638 888 q 693 793 690 833 q 667 726 693 753 q 600 700 640 700 l 474 700 l 474 536 q 546 517 511 532 q 632 459 594 496 q 692 373 669 422 q 714 268 714 324 q 693 165 714 214 q 636 81 672 117 q 551 22 600 44 q 474 0 510 4 q 444 -64 471 -36 q 375 -93 415 -93 q 306 -64 335 -93 q 278 0 279 -36 l 144 0 q 76 27 103 0 q 50 94 50 54 q 77 160 50 132 q 144 188 104 188 l 278 188 l 278 350 q 196 372 235 354 q 110 428 147 393 q 51 513 74 464 q 29 618 29 561 q 50 718 29 669 q 108 804 71 767 q 193 864 144 842 q 278 888 238 886 q 306 953 279 925 q 375 982 335 982 m 240 675 q 217 615 218 651 q 240 560 218 583 q 278 539 257 544 l 278 697 q 240 675 257 692 m 504 211 q 529 268 529 235 q 504 325 529 303 q 474 344 490 339 l 474 192 q 504 211 490 197 z "},"%":{"ha":1171,"x_min":25,"x_max":1146,"o":"m 721 885 q 776 839 758 874 q 783 768 794 804 l 561 67 q 515 13 550 31 q 443 6 479 -6 q 389 51 407 17 q 382 124 371 85 l 604 824 q 649 879 615 861 q 721 885 683 897 m 271 888 q 436 815 368 888 q 504 644 504 743 q 436 478 504 550 q 271 406 368 406 q 94 474 163 408 q 25 658 25 539 q 101 821 29 754 q 271 888 174 888 m 268 718 q 216 697 238 718 q 193 649 194 676 q 215 593 193 613 q 268 572 236 574 q 317 594 296 572 q 339 644 339 617 q 317 697 339 675 q 268 718 296 718 m 913 486 q 1078 414 1010 486 q 1146 243 1146 342 q 1078 76 1146 149 q 913 4 1010 4 q 735 72 804 7 q 667 257 667 138 q 743 419 671 353 q 913 486 815 486 m 910 317 q 858 296 879 317 q 835 247 836 275 q 856 192 835 211 q 910 171 878 172 q 959 193 938 171 q 981 243 981 215 q 959 295 981 274 q 910 317 938 317 z "},"&":{"ha":835,"x_min":42,"x_max":814,"o":"m 783 149 q 812 89 810 125 q 790 26 814 53 q 730 -3 767 -1 q 668 19 693 -4 l 539 132 l 485 68 q 403 18 449 36 q 306 0 358 0 q 194 24 244 0 q 110 86 144 47 q 59 174 76 125 q 43 276 42 224 q 67 378 44 328 q 135 471 89 429 q 82 548 101 504 q 63 643 63 592 q 82 738 63 693 q 134 815 101 782 q 211 867 167 849 q 306 886 256 886 q 442 843 385 886 q 526 736 500 800 q 543 601 553 672 q 478 471 533 529 q 461 457 469 464 q 446 443 453 450 l 522 375 l 594 456 q 653 485 618 483 q 715 463 689 486 q 744 403 743 439 q 722 340 746 368 l 653 261 l 783 149 m 306 714 q 256 693 276 714 q 236 643 236 672 q 255 597 236 619 q 306 574 274 574 q 356 594 335 574 q 376 643 376 614 q 356 693 376 672 q 306 714 335 714 m 408 244 l 283 356 q 233 323 253 347 q 214 267 214 299 q 240 202 214 229 q 306 175 267 175 q 369 201 343 175 l 408 244 z "},"'":{"ha":278,"x_min":44,"x_max":232,"o":"m 139 890 q 206 863 179 890 q 232 797 232 836 l 232 624 q 206 558 232 585 q 139 531 179 531 q 72 558 100 531 q 44 624 44 585 l 44 797 q 72 863 44 836 q 139 890 100 890 z "},"(":{"ha":538,"x_min":38,"x_max":492,"o":"m 397 0 q 465 -26 438 0 q 492 -93 492 -53 q 465 -159 492 -132 q 397 -186 438 -186 l 379 -186 q 248 -158 310 -186 q 140 -84 186 -131 q 65 24 93 -37 q 38 153 38 86 l 38 549 q 65 678 38 617 q 140 786 93 739 q 248 861 186 833 q 379 889 310 889 l 397 889 q 465 862 438 889 q 492 796 492 835 q 465 729 492 756 q 397 703 438 703 q 332 683 363 703 q 278 634 301 664 q 240 567 254 604 q 226 497 226 531 l 226 172 q 240 108 226 139 q 278 52 254 76 q 332 14 301 28 q 397 0 363 0 z "},")":{"ha":539,"x_min":47,"x_max":501,"o":"m 142 0 q 207 14 176 0 q 261 52 238 28 q 299 108 285 76 q 313 172 313 139 l 313 497 q 299 567 313 531 q 261 634 285 604 q 207 683 238 664 q 142 703 176 703 q 74 729 101 703 q 47 796 47 756 q 74 862 47 835 q 142 889 101 889 l 160 889 q 290 861 228 889 q 399 786 353 833 q 474 678 446 739 q 501 549 501 617 l 501 153 q 474 24 501 86 q 399 -84 446 -37 q 290 -158 353 -131 q 160 -186 228 -186 l 142 -186 q 74 -159 101 -186 q 47 -93 47 -132 q 74 -26 47 -53 q 142 0 101 0 z "},"*":{"ha":513,"x_min":35,"x_max":478,"o":"m 257 482 q 197 504 221 482 q 168 561 172 526 q 104 557 136 546 q 53 600 72 568 q 42 663 35 631 q 76 715 49 696 q 42 769 49 735 q 53 835 35 803 q 104 875 72 865 q 168 869 136 885 q 197 928 172 906 q 257 951 221 951 q 318 928 293 951 q 347 872 343 906 q 410 874 379 885 q 460 835 442 864 q 470 769 478 803 q 435 715 463 735 q 470 663 463 696 q 460 600 478 631 q 410 558 440 569 q 347 560 379 547 q 318 504 343 526 q 257 482 293 482 z "},"[":{"ha":438,"x_min":51,"x_max":393,"o":"m 300 0 q 366 -26 339 0 q 393 -93 393 -53 q 366 -159 393 -132 q 300 -186 339 -186 l 144 -186 q 81 -160 106 -186 q 51 -100 57 -135 l 51 803 q 81 863 57 838 q 144 889 106 888 l 300 889 q 366 862 339 889 q 393 796 393 835 q 366 729 393 756 q 300 703 339 703 l 238 703 l 238 0 l 300 0 z "},"]":{"ha":438,"x_min":44,"x_max":386,"o":"m 138 0 l 200 0 l 200 703 l 138 703 q 72 729 99 703 q 44 796 44 756 q 72 862 44 835 q 138 889 99 889 l 293 889 q 356 863 332 888 q 386 803 381 838 l 386 -100 q 356 -160 381 -135 q 293 -186 332 -186 l 138 -186 q 72 -159 99 -186 q 44 -93 44 -132 q 72 -26 44 -53 q 138 0 99 0 z "},"+":{"ha":575,"x_min":18,"x_max":558,"o":"m 463 511 q 531 484 503 511 q 558 417 558 457 q 531 350 558 378 q 463 322 503 322 l 382 322 l 382 242 q 354 174 382 201 q 288 146 326 146 q 220 174 247 146 q 193 242 193 201 l 193 322 l 111 322 q 44 350 71 322 q 18 417 18 378 q 44 484 18 457 q 111 511 71 511 l 193 511 l 193 593 q 220 660 193 633 q 288 688 247 688 q 354 660 326 688 q 382 593 382 633 l 382 511 l 463 511 z "},",":{"ha":278,"x_min":44,"x_max":233,"o":"m 138 189 q 206 161 178 189 q 233 96 233 133 l 233 -78 q 206 -144 233 -117 q 138 -171 178 -171 q 72 -144 99 -171 q 44 -78 44 -117 l 44 96 q 72 161 44 133 q 138 189 99 189 z "},"-":{"ha":632,"x_min":46,"x_max":586,"o":"m 586 418 q 559 351 586 379 q 493 324 532 324 l 139 324 q 72 351 99 324 q 46 418 46 379 q 72 485 46 458 q 139 513 99 513 l 493 513 q 559 485 532 513 q 586 418 586 458 z "},".":{"ha":261,"x_min":36,"x_max":225,"o":"m 225 94 q 197 28 225 56 q 129 0 169 0 q 63 28 90 0 q 36 94 36 56 q 63 161 36 133 q 129 189 90 189 q 197 161 169 189 q 225 94 225 133 z "},"/":{"ha":449,"x_min":13,"x_max":436,"o":"m 364 883 q 418 838 400 872 q 425 767 436 803 l 203 65 q 157 11 192 29 q 86 4 122 -7 q 31 49 49 15 q 24 122 13 83 l 246 822 q 292 878 257 860 q 364 883 328 896 z "},"{":{"ha":613,"x_min":19,"x_max":565,"o":"m 471 0 q 538 -27 510 0 q 565 -92 565 -54 q 538 -159 565 -132 q 471 -186 510 -186 l 453 -186 q 323 -158 385 -186 q 215 -84 261 -131 q 141 24 168 -37 q 114 154 114 86 l 114 257 q 47 284 74 257 q 19 350 19 311 q 47 418 19 390 q 114 446 74 446 l 114 549 q 141 678 114 617 q 215 785 168 739 q 323 860 261 832 q 453 888 385 888 l 471 888 q 538 860 510 888 q 565 794 565 833 q 538 728 565 756 q 471 701 510 701 q 406 682 436 701 q 352 633 375 663 q 315 567 329 603 q 301 496 301 531 l 301 172 q 315 108 301 139 q 352 52 329 76 q 406 14 375 28 q 471 0 436 0 z "},"\\":{"ha":449,"x_min":13,"x_max":436,"o":"m 85 883 q 156 878 121 896 q 203 822 192 860 l 425 122 q 418 49 436 83 q 363 4 400 15 q 292 11 326 -7 q 246 65 257 29 l 24 767 q 31 838 13 803 q 85 883 49 872 z "},"|":{"ha":299,"x_min":50,"x_max":246,"o":"m 147 889 q 217 860 188 889 q 246 790 246 831 l 246 -87 q 217 -157 246 -128 q 147 -186 188 -186 q 78 -157 107 -186 q 50 -87 50 -128 l 50 790 q 78 860 50 831 q 147 889 107 889 z "},"}":{"ha":611,"x_min":47,"x_max":593,"o":"m 142 0 q 207 14 176 0 q 260 52 238 28 q 297 108 283 76 q 311 172 311 139 l 311 496 q 297 567 311 531 q 260 633 283 603 q 207 682 238 663 q 142 701 176 701 q 75 728 103 701 q 47 794 47 756 q 75 860 47 833 q 142 888 103 888 l 160 888 q 290 860 228 888 q 398 785 351 832 q 472 678 444 739 q 499 549 499 617 l 499 446 q 566 418 539 446 q 593 350 593 390 q 566 284 593 311 q 499 257 539 257 l 499 154 q 472 24 499 86 q 398 -84 444 -37 q 290 -158 351 -131 q 160 -186 228 -186 l 142 -186 q 75 -159 103 -186 q 47 -92 47 -132 q 75 -27 47 -54 q 142 0 103 0 z "},":":{"ha":271,"x_min":42,"x_max":231,"o":"m 231 94 q 203 28 231 56 q 135 0 175 0 q 69 28 96 0 q 42 94 42 56 q 69 161 42 133 q 135 189 96 189 q 203 161 175 189 q 231 94 231 133 m 231 579 q 203 513 231 540 q 135 485 175 485 q 69 513 96 485 q 42 579 42 540 q 69 646 42 618 q 135 674 96 674 q 203 646 175 674 q 231 579 231 618 z "},";":{"ha":278,"x_min":44,"x_max":233,"o":"m 233 579 q 206 513 233 540 q 138 485 178 485 q 72 513 99 485 q 44 579 44 540 q 72 646 44 618 q 138 674 99 674 q 206 646 178 674 q 233 579 233 618 m 138 189 q 72 161 99 189 q 44 96 44 133 l 44 -78 q 72 -144 44 -117 q 138 -171 99 -171 q 206 -144 178 -171 q 233 -78 233 -117 l 233 96 q 206 161 233 133 q 138 189 178 189 z "},"‘":{"ha":332,"x_min":22,"x_max":311,"o":"m 256 874 q 301 815 290 853 q 292 744 311 778 l 206 594 q 148 551 186 561 q 75 563 110 542 q 32 619 42 582 q 42 690 22 656 l 129 840 q 185 883 147 872 q 256 874 222 893 z "},"’":{"ha":332,"x_min":22,"x_max":311,"o":"m 256 874 q 301 815 290 853 q 292 744 311 778 l 206 594 q 148 551 186 561 q 75 563 110 542 q 32 619 42 582 q 42 690 22 656 l 129 840 q 185 883 147 872 q 256 874 222 893 z "},"“":{"ha":622,"x_min":35,"x_max":589,"o":"m 268 874 q 313 815 303 853 q 304 744 324 778 l 218 594 q 160 551 199 561 q 88 563 122 542 q 44 619 54 582 q 54 690 35 656 l 142 840 q 197 883 160 872 q 268 874 235 893 m 533 874 q 578 815 568 853 q 569 744 589 778 l 483 594 q 426 551 464 561 q 353 563 388 542 q 310 619 319 582 q 319 690 300 656 l 407 840 q 463 883 425 872 q 533 874 500 893 z "},"”":{"ha":622,"x_min":35,"x_max":589,"o":"m 268 874 q 313 815 303 853 q 304 744 324 778 l 218 594 q 160 551 199 561 q 88 563 122 542 q 44 619 54 582 q 54 690 35 656 l 142 840 q 197 883 160 872 q 268 874 235 893 m 533 874 q 578 815 568 853 q 569 744 589 778 l 483 594 q 426 551 464 561 q 353 563 388 542 q 310 619 319 582 q 319 690 300 656 l 407 840 q 463 883 425 872 q 533 874 500 893 z "},"‚":{"ha":332,"x_min":22,"x_max":311,"o":"m 256 132 q 301 74 290 111 q 292 3 311 36 l 206 -147 q 148 -190 186 -181 q 75 -179 110 -200 q 32 -123 42 -160 q 42 -51 22 -86 l 129 99 q 185 141 147 131 q 256 132 222 151 z "},"„":{"ha":622,"x_min":35,"x_max":589,"o":"m 268 111 q 313 53 303 90 q 304 -18 324 15 l 218 -168 q 160 -211 199 -201 q 88 -200 122 -221 q 44 -144 54 -181 q 54 -72 35 -107 l 142 78 q 197 120 160 110 q 268 111 235 131 m 533 111 q 578 53 568 90 q 569 -18 589 15 l 483 -168 q 426 -211 464 -201 q 353 -200 388 -221 q 310 -144 319 -181 q 319 -72 300 -107 l 407 78 q 463 120 425 110 q 533 111 500 131 z "},"`":{"ha":419,"x_min":26,"x_max":393,"o":"m 36 878 q 80 934 46 915 q 149 943 114 953 l 317 899 q 374 855 356 888 q 383 785 393 822 q 340 726 374 746 q 268 715 306 706 l 101 761 q 45 804 64 771 q 36 878 26 838 z "},"´":{"ha":419,"x_min":26,"x_max":393,"o":"m 383 878 q 374 804 393 838 q 318 761 356 771 l 151 715 q 80 726 114 706 q 36 785 46 746 q 45 855 26 822 q 103 899 64 888 l 271 943 q 340 934 306 953 q 383 878 374 915 z "},"?":{"ha":610,"x_min":28,"x_max":592,"o":"m 310 888 q 419 865 368 888 q 508 806 469 843 q 569 717 547 768 q 592 607 592 665 q 577 516 592 558 q 536 438 563 474 q 445 358 500 389 q 325 324 390 326 l 325 322 q 298 257 325 285 q 231 229 271 229 q 165 257 192 229 q 139 322 139 285 l 139 417 l 139 426 q 167 486 139 463 q 231 513 194 510 l 322 513 q 381 544 357 517 q 404 607 404 571 q 376 675 404 647 q 310 703 349 703 q 242 675 269 703 q 214 607 214 647 q 186 541 214 568 q 119 514 158 514 q 57 537 83 514 q 28 596 31 560 q 48 704 28 651 q 105 798 68 757 q 194 863 142 839 q 310 888 246 888 m 322 93 q 295 27 322 54 q 229 0 268 0 q 165 27 192 0 q 139 93 139 54 q 165 158 139 131 q 229 185 192 185 q 295 158 268 185 q 322 93 322 131 z "},"A":{"ha":790,"x_min":22,"x_max":768,"o":"m 754 126 q 753 55 768 90 q 701 4 738 19 q 630 6 665 -10 q 581 60 594 22 l 568 90 l 222 90 l 211 60 q 162 6 197 22 q 90 4 126 -10 q 38 55 54 19 q 36 126 22 90 l 308 825 q 344 868 319 850 q 396 886 369 886 q 448 869 424 886 q 483 825 472 853 l 754 126 m 281 240 l 510 240 l 396 535 l 281 240 z "},"B":{"ha":775,"x_min":51,"x_max":733,"o":"m 464 885 q 567 864 518 885 q 651 808 615 843 q 707 724 686 772 q 728 621 728 675 q 711 528 728 572 q 665 450 694 485 q 715 369 697 414 q 733 271 733 324 q 712 165 733 214 q 654 79 690 115 q 568 22 618 43 q 463 0 518 0 l 146 0 q 78 27 106 0 q 51 93 51 54 l 51 792 q 78 857 51 829 q 146 885 106 885 l 464 885 m 371 450 q 398 515 371 488 q 463 542 425 542 q 519 567 497 544 q 542 622 542 590 q 519 677 542 654 q 464 700 496 700 l 238 700 l 238 183 l 463 183 q 524 209 499 183 q 550 271 550 235 q 526 331 550 306 q 463 358 501 356 q 398 385 425 358 q 371 450 371 413 z "},"=":{"ha":619,"x_min":47,"x_max":572,"o":"m 572 369 q 546 305 572 332 q 482 278 519 278 l 139 278 q 74 305 100 278 q 47 369 47 332 q 74 434 47 407 q 139 461 100 461 l 482 461 q 546 434 519 461 q 572 369 572 407 m 572 610 q 546 545 572 572 q 482 518 519 518 l 139 518 q 74 545 100 518 q 47 610 47 572 q 74 674 47 647 q 139 701 100 701 l 482 701 q 546 674 519 701 q 572 610 572 647 z "},"<":{"ha":538,"x_min":11,"x_max":499,"o":"m 54 496 l 357 657 q 426 664 390 675 q 481 619 463 653 q 487 550 499 586 q 442 496 475 514 l 292 415 l 442 336 q 487 282 475 318 q 481 213 499 246 q 426 168 463 179 q 357 175 390 157 l 54 335 q 22 369 32 346 q 12 417 11 392 q 24 464 13 442 q 54 496 35 486 z "},">":{"ha":538,"x_min":39,"x_max":526,"o":"m 483 496 q 514 464 503 486 q 526 417 525 442 q 516 369 526 392 q 483 335 506 346 l 181 175 q 111 168 147 157 q 57 213 75 179 q 51 282 39 246 q 96 336 63 318 l 246 415 l 96 496 q 51 550 63 514 q 57 619 39 586 q 111 664 75 653 q 181 657 147 675 l 483 496 z "},"ˆ":{"ha":617,"x_min":28,"x_max":590,"o":"m 186 786 q 122 760 160 760 q 56 788 83 760 q 35 855 28 817 q 68 919 42 893 l 235 1086 q 301 1113 263 1114 q 369 1086 339 1113 l 550 919 q 584 853 578 892 q 563 786 590 814 q 497 759 536 760 q 431 786 458 758 l 301 901 l 186 786 z "},"˜":{"ha":719,"x_min":38,"x_max":682,"o":"m 371 985 l 439 947 q 474 935 461 932 q 504 961 486 939 q 555 1006 522 992 q 624 999 588 1019 q 670 942 658 979 q 657 863 682 904 q 599 794 632 819 q 522 758 567 768 q 426 759 478 749 q 349 786 375 769 l 279 824 q 242 831 258 838 q 215 808 225 825 q 163 765 196 779 q 94 772 131 751 q 49 829 60 792 q 61 908 38 867 q 119 976 86 951 q 196 1012 151 1001 q 290 1013 240 1022 q 371 985 339 1003 z "},"¡":{"ha":243,"x_min":47,"x_max":235,"o":"m 235 610 q 207 675 235 647 q 143 703 179 703 q 75 675 103 703 q 47 610 47 647 q 75 543 47 571 q 143 515 103 515 q 207 543 179 515 q 235 610 235 571 m 143 -185 q 207 -157 179 -185 q 235 -90 235 -130 l 235 378 q 207 445 235 418 q 143 472 179 472 q 75 445 103 472 q 47 378 47 418 l 47 -90 q 75 -157 47 -130 q 143 -185 103 -185 z "},"¿":{"ha":619,"x_min":28,"x_max":592,"o":"m 310 -214 q 201 -192 251 -214 q 111 -132 150 -169 q 50 -43 72 -94 q 28 67 28 8 q 42 158 28 115 q 83 236 57 200 q 174 316 120 285 q 295 350 229 347 l 295 351 q 322 417 295 389 q 389 444 349 444 q 454 417 428 444 q 481 351 481 389 l 481 257 l 481 247 q 453 188 481 211 q 389 161 425 164 l 297 161 q 239 130 263 157 q 215 67 215 103 q 243 -1 215 27 q 310 -29 271 -29 q 378 -1 350 -29 q 406 67 406 27 q 433 133 406 106 q 500 160 461 160 q 563 137 536 160 q 592 78 589 114 q 572 -30 592 22 q 515 -124 551 -83 q 426 -189 478 -165 q 310 -214 374 -214 m 297 581 q 324 647 297 619 q 390 674 351 674 q 454 647 428 674 q 481 581 481 619 q 454 516 481 543 q 390 489 428 489 q 324 516 351 489 q 297 581 297 543 z "},"¨":{"ha":546,"x_min":44,"x_max":501,"o":"m 233 846 q 206 779 233 807 q 138 751 178 751 q 72 779 99 751 q 44 846 44 807 q 72 913 44 885 q 138 940 99 940 q 206 913 178 940 q 233 846 233 885 m 501 846 q 474 779 501 807 q 406 751 446 751 q 340 779 367 751 q 313 846 313 807 q 340 913 313 885 q 406 940 367 940 q 474 913 446 940 q 501 846 501 885 z "},"è":{"ha":729,"x_min":35,"x_max":708,"o":"m 371 672 q 499 644 438 672 q 606 570 560 617 q 681 463 653 524 q 708 336 708 403 q 681 279 708 300 q 614 260 654 258 l 244 260 q 371 181 290 181 q 408 185 393 181 q 435 194 424 189 q 459 204 447 200 q 486 208 471 208 q 537 192 515 207 q 569 153 558 176 q 576 104 579 131 q 551 56 572 78 q 468 13 514 25 q 371 0 422 1 q 243 24 304 -3 q 135 98 182 51 q 62 207 89 144 q 35 336 35 269 q 62 463 35 401 q 135 570 89 524 q 242 644 181 617 q 371 672 303 672 m 497 414 q 442 474 474 457 q 371 492 410 492 q 299 474 331 492 q 244 414 268 457 l 497 414 m 129 921 q 173 977 139 958 q 242 986 207 996 l 410 942 q 467 898 449 931 q 476 828 486 865 q 433 769 467 789 q 361 758 399 749 l 194 804 q 138 847 157 814 q 129 921 119 881 z "},"é":{"ha":729,"x_min":35,"x_max":708,"o":"m 371 672 q 499 644 438 672 q 606 570 560 617 q 681 463 653 524 q 708 336 708 403 q 681 279 708 300 q 614 260 654 258 l 244 260 q 371 181 290 181 q 408 185 393 181 q 435 194 424 189 q 459 204 447 200 q 486 208 471 208 q 537 192 515 207 q 569 153 558 176 q 576 104 579 131 q 551 56 572 78 q 468 13 514 25 q 371 0 422 1 q 243 24 304 -3 q 135 98 182 51 q 62 207 89 144 q 35 336 35 269 q 62 463 35 401 q 135 570 89 524 q 242 644 181 617 q 371 672 303 672 m 497 414 q 442 474 474 457 q 371 492 410 492 q 299 474 331 492 q 244 414 268 457 l 497 414 m 613 919 q 603 846 622 879 q 547 803 585 813 l 381 757 q 309 767 343 747 q 265 826 275 788 q 274 897 256 864 q 332 940 293 929 l 500 985 q 569 976 535 994 q 613 919 603 957 z "},"ê":{"ha":729,"x_min":35,"x_max":708,"o":"m 371 672 q 499 644 438 672 q 606 570 560 617 q 681 463 653 524 q 708 336 708 403 q 681 279 708 300 q 614 260 654 258 l 244 260 q 371 181 290 181 q 408 185 393 181 q 435 194 424 189 q 459 204 447 200 q 486 208 471 208 q 537 192 515 207 q 569 153 558 176 q 576 104 579 131 q 551 56 572 78 q 468 13 514 25 q 371 0 422 1 q 243 24 304 -3 q 135 98 182 51 q 62 207 89 144 q 35 336 35 269 q 62 463 35 401 q 135 570 89 524 q 242 644 181 617 q 371 672 303 672 m 497 414 q 442 474 474 457 q 371 492 410 492 q 299 474 331 492 q 244 414 268 457 l 497 414 m 244 744 q 180 718 218 718 q 114 746 142 718 q 93 813 86 775 q 126 878 100 851 l 293 1044 q 359 1072 321 1072 q 428 1044 397 1071 l 608 878 q 642 811 636 850 q 621 744 649 772 q 556 717 594 718 q 489 744 517 717 l 360 860 l 244 744 z "},"ë":{"ha":729,"x_min":35,"x_max":708,"o":"m 371 672 q 499 644 438 672 q 606 570 560 617 q 681 463 653 524 q 708 336 708 403 q 681 279 708 300 q 614 260 654 258 l 244 260 q 371 181 290 181 q 408 185 393 181 q 435 194 424 189 q 459 204 447 200 q 486 208 471 208 q 537 192 515 207 q 569 153 558 176 q 576 104 579 131 q 551 56 572 78 q 468 13 514 25 q 371 0 422 1 q 243 24 304 -3 q 135 98 182 51 q 62 207 89 144 q 35 336 35 269 q 62 463 35 401 q 135 570 89 524 q 242 644 181 617 q 371 672 303 672 m 497 414 q 442 474 474 457 q 371 492 410 492 q 299 474 331 492 q 244 414 268 457 l 497 414 m 332 876 q 304 810 332 838 q 236 782 276 782 q 170 810 197 782 q 143 876 143 838 q 170 943 143 915 q 236 971 197 971 q 304 943 276 971 q 332 876 332 915 m 600 876 q 572 810 600 838 q 504 782 544 782 q 438 810 465 782 q 411 876 411 838 q 438 943 411 915 q 504 971 465 971 q 572 943 544 971 q 600 876 600 915 z "},"ì":{"ha":414,"x_min":17,"x_max":383,"o":"m 247 669 q 308 643 283 669 q 335 579 332 617 l 335 88 q 311 25 335 50 q 247 -3 288 0 q 186 19 211 -3 q 156 82 161 42 l 156 585 q 185 644 158 621 q 247 669 211 668 m 26 921 q 70 977 36 958 q 139 986 104 996 l 307 942 q 365 898 346 931 q 374 828 383 865 q 330 769 364 789 q 258 758 296 749 l 92 804 q 35 847 54 814 q 26 921 17 881 z "},"í":{"ha":415,"x_min":33,"x_max":400,"o":"m 163 669 q 223 643 199 669 q 250 579 247 617 l 250 88 q 226 25 250 50 q 163 -3 203 0 q 101 19 126 -3 q 71 82 76 42 l 71 585 q 100 644 74 621 q 163 669 126 668 m 390 919 q 381 846 400 879 q 325 803 363 813 l 158 757 q 87 767 121 747 q 43 826 53 788 q 52 897 33 864 q 110 940 71 929 l 278 985 q 347 976 313 994 q 390 919 381 957 z "},"î":{"ha":590,"x_min":15,"x_max":578,"o":"m 292 674 q 352 647 328 674 q 379 583 376 621 l 379 92 q 356 29 379 54 q 292 1 332 4 q 231 24 256 1 q 200 86 206 46 l 200 589 q 229 649 203 625 q 292 674 256 672 m 174 739 q 109 713 147 713 q 43 740 71 713 q 22 808 15 769 q 56 872 29 846 l 222 1039 q 288 1066 250 1067 q 357 1039 326 1065 l 538 872 q 572 806 565 844 q 550 739 578 767 q 485 712 524 713 q 418 739 446 711 l 289 854 l 174 739 z "},"ï":{"ha":506,"x_min":25,"x_max":482,"o":"m 253 669 q 313 643 289 669 q 340 579 338 617 l 340 88 q 317 25 340 50 q 253 -3 293 0 q 192 19 217 -3 q 161 82 167 42 l 161 585 q 190 644 164 621 q 253 669 217 668 m 214 874 q 186 807 214 835 q 118 779 158 779 q 52 807 79 779 q 25 874 25 835 q 52 940 25 913 q 118 968 79 968 q 186 940 158 968 q 214 874 214 913 m 482 874 q 454 807 482 835 q 386 779 426 779 q 320 807 347 779 q 293 874 293 835 q 320 940 293 913 q 386 968 347 968 q 454 940 426 968 q 482 874 482 913 z "},"ò":{"ha":728,"x_min":36,"x_max":708,"o":"m 372 674 q 501 647 440 674 q 608 575 563 621 q 681 468 654 529 q 708 336 708 407 q 682 206 708 267 q 610 100 656 146 q 504 28 565 54 q 372 1 443 1 q 242 26 303 1 q 135 97 181 51 q 63 203 89 142 q 36 336 36 264 q 62 466 36 406 q 133 572 88 526 q 240 644 178 617 q 372 674 301 671 m 372 492 q 313 480 340 492 q 263 447 285 468 q 229 398 242 426 q 217 336 217 369 q 229 276 217 304 q 263 226 242 247 q 313 192 285 204 q 372 179 340 179 q 433 192 404 179 q 482 226 461 204 q 515 276 503 247 q 528 336 528 304 q 482 444 525 400 q 372 492 439 489 m 171 921 q 215 977 181 958 q 283 986 249 996 l 451 942 q 509 898 490 931 q 518 828 528 865 q 474 769 508 789 q 403 758 440 749 l 236 804 q 180 847 199 814 q 171 921 161 881 z "},"ó":{"ha":728,"x_min":36,"x_max":708,"o":"m 372 674 q 501 647 440 674 q 608 575 563 621 q 681 468 654 529 q 708 336 708 407 q 682 206 708 267 q 610 100 656 146 q 504 28 565 54 q 372 1 443 1 q 242 26 303 1 q 135 97 181 51 q 63 203 89 142 q 36 336 36 264 q 62 466 36 406 q 133 572 88 526 q 240 644 178 617 q 372 674 301 671 m 372 492 q 313 480 340 492 q 263 447 285 468 q 229 398 242 426 q 217 336 217 369 q 229 276 217 304 q 263 226 242 247 q 313 192 285 204 q 372 179 340 179 q 433 192 404 179 q 482 226 461 204 q 515 276 503 247 q 528 336 528 304 q 482 444 525 400 q 372 492 439 489 m 575 919 q 566 846 585 879 q 510 803 547 813 l 343 757 q 272 767 306 747 q 228 826 238 788 q 237 897 218 864 q 294 940 256 929 l 463 985 q 531 976 497 994 q 575 919 565 957 z "},"ô":{"ha":728,"x_min":36,"x_max":708,"o":"m 372 674 q 501 647 440 674 q 608 575 563 621 q 681 468 654 529 q 708 336 708 407 q 682 206 708 267 q 610 100 656 146 q 504 28 565 54 q 372 1 443 1 q 242 26 303 1 q 135 97 181 51 q 63 203 89 142 q 36 336 36 264 q 62 466 36 406 q 133 572 88 526 q 240 644 178 617 q 372 674 301 671 m 372 492 q 313 480 340 492 q 263 447 285 468 q 229 398 242 426 q 217 336 217 369 q 229 276 217 304 q 263 226 242 247 q 313 192 285 204 q 372 179 340 179 q 433 192 404 179 q 482 226 461 204 q 515 276 503 247 q 528 336 528 304 q 482 444 525 400 q 372 492 439 489 m 246 742 q 181 715 219 715 q 115 743 143 715 q 94 810 88 772 q 128 875 101 849 l 294 1042 q 360 1069 322 1069 q 429 1042 399 1068 l 610 875 q 644 808 638 847 q 622 742 650 769 q 557 715 596 715 q 490 742 518 714 l 361 857 l 246 742 z "},"õ":{"ha":728,"x_min":36,"x_max":708,"o":"m 372 674 q 501 647 440 674 q 608 575 563 621 q 681 468 654 529 q 708 336 708 407 q 682 206 708 267 q 610 100 656 146 q 504 28 565 54 q 372 1 443 1 q 242 26 303 1 q 135 97 181 51 q 63 203 89 142 q 36 336 36 264 q 62 466 36 406 q 133 572 88 526 q 240 644 178 617 q 372 674 301 671 m 372 492 q 313 480 340 492 q 263 447 285 468 q 229 398 242 426 q 217 336 217 369 q 229 276 217 304 q 263 226 242 247 q 313 192 285 204 q 372 179 340 179 q 433 192 404 179 q 482 226 461 204 q 515 276 503 247 q 528 336 528 304 q 482 444 525 400 q 372 492 439 489 m 383 978 l 451 940 q 486 928 474 925 q 517 954 499 932 q 567 999 535 985 q 636 992 600 1013 q 683 935 671 972 q 669 856 694 897 q 612 787 644 813 q 535 751 579 761 q 439 752 490 742 q 361 779 388 763 l 292 817 q 254 824 271 831 q 228 801 238 818 q 176 758 208 772 q 107 765 143 744 q 61 822 72 785 q 74 901 50 860 q 131 969 99 944 q 208 1005 164 994 q 302 1006 253 1015 q 383 978 351 996 z "},"ö":{"ha":728,"x_min":36,"x_max":708,"o":"m 372 674 q 501 647 440 674 q 608 575 563 621 q 681 468 654 529 q 708 336 708 407 q 682 206 708 267 q 610 100 656 146 q 504 28 565 54 q 372 1 443 1 q 242 26 303 1 q 135 97 181 51 q 63 203 89 142 q 36 336 36 264 q 62 466 36 406 q 133 572 88 526 q 240 644 178 617 q 372 674 301 671 m 372 492 q 313 480 340 492 q 263 447 285 468 q 229 398 242 426 q 217 336 217 369 q 229 276 217 304 q 263 226 242 247 q 313 192 285 204 q 372 179 340 179 q 433 192 404 179 q 482 226 461 204 q 515 276 503 247 q 528 336 528 304 q 482 444 525 400 q 372 492 439 489 m 333 872 q 306 806 333 833 q 238 778 278 778 q 172 806 199 778 q 144 872 144 833 q 172 939 144 911 q 238 967 199 967 q 306 939 278 967 q 333 872 333 911 m 601 872 q 574 806 601 833 q 506 778 546 778 q 440 806 467 778 q 413 872 413 833 q 440 939 413 911 q 506 967 467 967 q 574 939 546 967 q 601 872 601 911 z "},"ù":{"ha":731,"x_min":43,"x_max":718,"o":"m 133 674 q 197 647 169 674 q 225 581 225 619 l 225 336 q 238 276 225 304 q 271 226 250 247 q 320 193 292 206 q 381 181 349 181 q 439 192 411 181 q 488 222 467 203 q 522 269 510 242 q 535 329 535 297 l 535 582 q 561 644 535 617 q 625 674 588 672 q 690 647 663 674 q 718 586 717 619 l 718 336 q 692 206 718 267 q 619 99 665 144 q 513 26 574 53 q 381 0 451 0 q 253 23 314 -3 q 145 94 192 49 q 71 199 99 139 q 43 326 43 260 l 43 582 q 69 645 43 618 q 133 674 94 672 m 135 918 q 178 974 144 956 q 247 983 213 993 l 415 939 q 473 895 454 928 q 482 825 492 863 q 438 766 472 786 q 367 756 404 746 l 200 801 q 144 844 163 811 q 135 918 125 878 z "},"ú":{"ha":731,"x_min":43,"x_max":718,"o":"m 133 674 q 197 647 169 674 q 225 581 225 619 l 225 336 q 238 276 225 304 q 271 226 250 247 q 320 193 292 206 q 381 181 349 181 q 439 192 411 181 q 488 222 467 203 q 522 269 510 242 q 535 329 535 297 l 535 582 q 561 644 535 617 q 625 674 588 672 q 690 647 663 674 q 718 586 717 619 l 718 336 q 692 206 718 267 q 619 99 665 144 q 513 26 574 53 q 381 0 451 0 q 253 23 314 -3 q 145 94 192 49 q 71 199 99 139 q 43 326 43 260 l 43 582 q 69 645 43 618 q 133 674 94 672 m 607 919 q 598 846 617 879 q 542 803 579 813 l 375 757 q 303 767 338 747 q 260 826 269 788 q 269 897 250 864 q 326 940 288 929 l 494 985 q 563 976 529 994 q 607 919 597 957 z "},"û":{"ha":731,"x_min":43,"x_max":718,"o":"m 133 674 q 197 647 169 674 q 225 581 225 619 l 225 336 q 238 276 225 304 q 271 226 250 247 q 320 193 292 206 q 381 181 349 181 q 439 192 411 181 q 488 222 467 203 q 522 269 510 242 q 535 329 535 297 l 535 582 q 561 644 535 617 q 625 674 588 672 q 690 647 663 674 q 718 586 717 619 l 718 336 q 692 206 718 267 q 619 99 665 144 q 513 26 574 53 q 381 0 451 0 q 253 23 314 -3 q 145 94 192 49 q 71 199 99 139 q 43 326 43 260 l 43 582 q 69 645 43 618 q 133 674 94 672 m 260 742 q 195 715 233 715 q 129 743 157 715 q 108 810 101 772 q 142 875 115 849 l 308 1042 q 374 1069 336 1069 q 443 1042 413 1068 l 624 875 q 658 808 651 847 q 636 742 664 769 q 571 715 610 715 q 504 742 532 714 l 375 857 l 260 742 z "},"ü":{"ha":731,"x_min":43,"x_max":718,"o":"m 133 674 q 197 647 169 674 q 225 581 225 619 l 225 336 q 238 276 225 304 q 271 226 250 247 q 320 193 292 206 q 381 181 349 181 q 439 192 411 181 q 488 222 467 203 q 522 269 510 242 q 535 329 535 297 l 535 582 q 561 644 535 617 q 625 674 588 672 q 690 647 663 674 q 718 586 717 619 l 718 336 q 692 206 718 267 q 619 99 665 144 q 513 26 574 53 q 381 0 451 0 q 253 23 314 -3 q 145 94 192 49 q 71 199 99 139 q 43 326 43 260 l 43 582 q 69 645 43 618 q 133 674 94 672 m 340 874 q 313 807 340 835 q 244 779 285 779 q 178 807 206 779 q 151 874 151 835 q 178 940 151 913 q 244 968 206 968 q 313 940 285 968 q 340 874 340 913 m 608 874 q 581 807 608 835 q 513 779 553 779 q 447 807 474 779 q 419 874 419 835 q 447 940 419 913 q 513 968 474 968 q 581 940 553 968 q 608 874 608 913 z "},"ý":{"ha":731,"x_min":26,"x_max":667,"o":"m 26 457 l 26 581 q 53 647 26 619 q 118 674 81 674 q 185 647 158 674 q 213 581 213 619 l 213 457 q 251 362 213 400 q 346 324 289 324 q 442 362 403 324 q 481 457 481 400 l 481 581 q 508 647 481 619 q 572 674 535 674 q 640 647 613 674 q 667 581 667 619 l 667 457 l 667 456 q 649 352 667 401 q 601 263 632 303 q 528 193 571 222 q 436 150 486 164 l 436 -121 q 409 -187 436 -160 q 344 -214 382 -214 q 277 -187 304 -214 q 250 -121 250 -160 l 250 151 q 160 196 201 167 q 90 265 119 225 q 43 354 60 306 q 26 457 26 403 m 614 919 q 605 846 624 879 q 549 803 586 813 l 382 757 q 310 767 344 747 q 267 826 276 788 q 276 897 257 864 q 333 940 294 929 l 501 985 q 570 976 536 994 q 614 919 604 957 z "},"ÿ":{"ha":731,"x_min":26,"x_max":667,"o":"m 26 457 l 26 581 q 53 647 26 619 q 118 674 81 674 q 185 647 158 674 q 213 581 213 619 l 213 457 q 251 362 213 400 q 346 324 289 324 q 442 362 403 324 q 481 457 481 400 l 481 581 q 508 647 481 619 q 572 674 535 674 q 640 647 613 674 q 667 581 667 619 l 667 457 l 667 456 q 649 352 667 401 q 601 263 632 303 q 528 193 571 222 q 436 150 486 164 l 436 -121 q 409 -187 436 -160 q 344 -214 382 -214 q 277 -187 304 -214 q 250 -121 250 -160 l 250 151 q 160 196 201 167 q 90 265 119 225 q 43 354 60 306 q 26 457 26 403 m 317 874 q 289 807 317 835 q 221 779 261 779 q 155 807 182 779 q 128 874 128 835 q 155 940 128 913 q 221 968 182 968 q 289 940 261 968 q 317 874 317 913 m 585 874 q 557 807 585 835 q 489 779 529 779 q 423 807 450 779 q 396 874 396 835 q 423 940 396 913 q 489 968 450 968 q 557 940 529 968 q 585 874 585 913 z "},"C":{"ha":871,"x_min":33,"x_max":836,"o":"m 33 444 q 68 617 33 536 q 163 758 103 697 q 303 853 222 818 q 476 888 385 888 q 669 842 581 888 q 819 722 758 797 q 835 675 836 697 q 806 610 835 638 q 738 581 776 582 q 682 601 699 582 q 592 675 646 647 q 476 703 539 703 q 376 683 424 703 q 294 627 329 663 q 238 545 258 592 q 217 447 217 499 q 237 345 217 393 q 292 262 257 297 q 375 206 328 226 q 476 186 422 186 q 592 214 539 186 q 682 288 646 242 q 739 307 703 307 q 807 279 779 307 q 835 218 835 251 q 819 167 835 186 q 669 47 758 92 q 476 1 581 1 q 303 36 385 1 q 163 131 222 71 q 68 272 103 192 q 33 444 33 353 z "},"D":{"ha":856,"x_min":51,"x_max":822,"o":"m 381 888 q 689 760 557 888 q 822 444 821 633 q 693 133 822 267 q 381 0 564 0 l 146 0 q 80 27 108 0 q 51 94 51 54 l 51 793 q 78 858 51 829 q 146 888 106 888 l 381 888 m 239 699 l 239 189 l 381 189 q 562 260 485 188 q 639 444 639 332 q 561 626 635 553 q 381 699 488 700 l 239 699 z "},"E":{"ha":683,"x_min":51,"x_max":635,"o":"m 542 188 q 608 160 581 188 q 635 94 635 132 q 608 27 635 54 q 542 0 581 0 l 144 0 q 80 27 108 0 q 51 94 51 54 l 51 793 q 78 858 51 829 q 144 888 104 888 l 542 888 q 608 860 581 888 q 635 793 635 832 q 608 726 635 753 q 542 700 581 700 l 236 700 l 236 542 l 449 542 q 514 514 486 542 q 542 447 542 486 q 514 381 542 408 q 449 354 486 354 l 236 354 l 236 188 l 542 188 z "},"F":{"ha":646,"x_min":51,"x_max":636,"o":"m 240 700 l 240 493 l 450 493 q 517 465 490 493 q 543 399 543 438 q 517 333 543 360 q 450 306 490 306 l 240 306 l 240 94 q 213 27 240 54 q 146 0 186 0 q 78 27 106 0 q 51 94 51 54 l 51 793 q 78 858 51 829 q 146 888 106 888 l 543 888 q 609 860 582 888 q 636 793 636 832 q 609 726 636 753 q 543 700 582 700 l 240 700 z "},"H":{"ha":782,"x_min":51,"x_max":731,"o":"m 635 886 q 701 860 671 886 q 731 793 731 833 l 731 93 q 723 58 731 75 q 701 28 715 42 q 670 8 688 15 q 635 0 653 0 q 574 27 601 0 q 546 93 546 54 l 546 321 l 243 321 l 243 93 q 216 27 243 54 q 150 0 189 0 q 80 26 107 0 q 51 93 53 53 l 51 793 q 81 861 51 836 q 150 886 111 886 q 216 858 189 886 q 243 793 243 831 l 243 510 l 546 510 l 546 793 q 574 858 546 831 q 635 886 601 886 z "},"I":{"ha":289,"x_min":50,"x_max":236,"o":"m 144 886 q 209 858 182 886 q 236 793 236 831 l 236 93 q 209 27 236 54 q 144 0 182 0 q 77 27 104 0 q 50 93 50 54 l 50 793 q 77 858 50 831 q 144 886 104 886 z "},"J":{"ha":465,"x_min":13,"x_max":421,"o":"m 325 886 q 393 858 365 886 q 421 793 421 831 l 421 121 q 395 -2 419 54 q 328 -101 371 -58 q 228 -168 286 -143 q 104 -194 171 -193 q 40 -168 67 -194 q 13 -101 13 -142 q 40 -35 13 -62 q 104 -7 67 -7 q 155 3 131 -7 q 197 30 179 13 q 224 71 214 47 q 235 121 235 94 l 235 793 q 261 858 235 831 q 325 886 288 886 z "},"K":{"ha":776,"x_min":50,"x_max":732,"o":"m 239 311 l 239 93 q 212 27 239 54 q 144 0 185 0 q 78 27 106 0 q 50 93 50 54 l 50 793 q 78 858 50 831 q 144 886 106 886 q 212 858 185 886 q 239 793 239 831 l 239 575 l 563 858 q 630 886 592 886 q 696 858 668 886 q 724 792 724 831 q 696 726 724 754 l 472 531 l 711 143 q 723 73 732 110 q 682 15 714 36 q 610 3 647 -6 q 553 46 574 13 l 332 404 l 239 311 z "},"L":{"ha":674,"x_min":51,"x_max":667,"o":"m 575 189 q 640 162 613 189 q 667 96 667 135 q 640 28 667 56 q 575 1 613 1 l 147 1 q 81 28 107 1 q 51 96 54 56 l 51 794 q 79 860 51 833 q 147 888 107 888 q 212 860 183 888 q 240 794 240 833 l 240 189 l 575 189 z "},"M":{"ha":1033,"x_min":49,"x_max":985,"o":"m 328 888 q 430 867 383 886 q 517 815 476 849 q 603 869 554 851 q 701 888 651 888 q 811 865 760 888 q 901 803 863 842 q 961 713 939 764 q 985 606 983 663 l 985 94 q 956 28 985 56 q 890 0 928 0 q 824 28 851 0 q 796 94 796 56 l 796 596 q 769 662 796 635 q 701 689 742 689 q 637 662 664 689 q 610 596 610 635 l 610 482 q 583 415 610 443 q 517 388 556 388 q 449 415 476 388 q 422 482 422 443 l 422 596 q 394 662 422 635 q 328 689 365 689 q 262 662 290 689 q 233 596 233 635 l 233 94 q 207 28 233 56 q 140 0 181 0 q 75 28 101 0 q 49 94 49 56 l 49 606 q 75 717 53 665 q 134 806 97 768 q 220 866 171 844 q 328 888 269 888 z "},"N":{"ha":765,"x_min":46,"x_max":719,"o":"m 383 883 q 511 859 450 883 q 618 791 572 835 q 692 688 664 747 q 719 558 719 628 l 719 90 q 694 28 719 54 q 631 0 668 1 q 566 24 593 0 q 539 86 539 49 l 539 547 q 527 608 539 579 q 494 657 515 636 q 444 690 472 678 q 382 703 415 703 q 324 691 351 703 q 275 660 296 679 q 242 613 254 640 q 229 554 229 585 l 229 90 q 201 27 229 54 q 138 0 174 0 q 74 25 101 0 q 46 86 46 50 l 46 547 q 73 678 47 617 q 144 785 99 739 q 250 857 189 831 q 383 883 311 883 z "},"R":{"ha":711,"x_min":46,"x_max":675,"o":"m 593 160 q 613 128 607 146 q 619 93 619 111 q 613 58 619 75 q 593 26 607 40 q 527 0 565 0 q 461 26 489 0 l 233 254 l 233 94 q 206 27 233 54 q 139 0 178 0 q 74 27 101 0 q 46 94 46 54 l 46 572 q 72 692 47 635 q 139 793 96 750 q 239 862 182 836 q 363 888 296 888 q 481 863 424 888 q 581 795 538 838 q 649 695 624 753 q 675 572 675 638 q 621 394 675 472 q 476 276 567 315 l 593 160 m 363 700 q 312 690 335 700 q 271 663 289 681 q 243 622 253 646 q 233 572 233 599 q 244 524 233 547 q 272 482 254 500 q 313 453 289 464 q 363 443 336 443 q 452 480 414 443 q 490 572 490 517 q 480 622 490 599 q 452 663 469 646 q 411 690 435 681 q 363 700 388 700 z "},"S":{"ha":704,"x_min":38,"x_max":669,"o":"m 401 183 q 457 206 435 189 q 482 260 479 224 q 458 310 481 293 q 404 335 436 328 l 307 351 q 208 377 256 358 q 124 433 161 396 q 64 519 86 469 q 43 625 42 569 q 64 727 43 679 q 122 809 85 775 q 208 864 158 843 q 282 883 243 878 q 349 889 314 889 q 421 882 389 889 q 526 844 478 872 q 604 785 550 836 q 619 764 611 776 q 631 739 626 751 q 618 668 639 701 q 558 626 597 635 q 506 631 528 619 q 463 661 483 643 q 418 697 440 685 q 355 708 396 708 q 288 699 314 708 q 244 671 261 690 q 228 622 228 651 q 251 565 226 588 q 314 538 275 542 l 403 525 q 529 490 471 515 q 617 433 588 465 q 658 365 646 401 q 669 271 669 328 q 647 170 668 219 q 590 84 626 121 q 503 26 553 47 q 400 3 454 4 l 378 1 q 347 1 363 0 q 275 8 307 1 q 169 46 218 18 q 53 163 96 88 q 42 186 47 172 q 38 213 38 200 q 65 279 38 251 q 132 307 93 307 q 182 291 163 307 q 217 251 201 275 q 260 207 233 224 q 303 185 286 190 q 342 180 321 181 q 401 183 363 179 z "},"T":{"ha":729,"x_min":22,"x_max":708,"o":"m 614 888 q 681 860 654 888 q 708 793 708 832 q 681 726 708 753 q 614 700 654 700 l 458 700 l 458 94 q 432 27 458 54 q 365 0 406 0 q 299 27 325 0 q 272 94 272 54 l 272 700 l 115 700 q 49 726 76 700 q 22 793 22 753 q 49 860 22 832 q 115 888 76 888 l 614 888 z "},"U":{"ha":765,"x_min":46,"x_max":719,"o":"m 383 4 q 250 31 311 4 q 144 103 189 57 q 73 210 99 149 q 46 340 47 271 l 46 801 q 74 863 46 838 q 138 888 101 888 q 201 860 174 888 q 229 797 229 833 l 229 333 q 242 275 229 303 q 275 228 254 247 q 324 197 296 208 q 382 185 351 185 q 444 197 415 185 q 494 231 472 210 q 527 280 515 251 q 539 340 539 308 l 539 801 q 566 863 539 839 q 631 888 593 888 q 694 860 668 886 q 719 797 719 833 l 719 329 q 692 200 719 260 q 618 97 664 140 q 511 28 572 53 q 383 4 450 4 z "},"V":{"ha":790,"x_min":22,"x_max":768,"o":"m 483 61 q 448 17 472 33 q 396 0 424 0 q 344 18 369 0 q 308 61 319 36 l 36 760 q 38 831 22 796 q 90 882 54 867 q 162 880 126 896 q 211 826 197 864 l 396 351 l 581 826 q 630 880 594 864 q 701 882 665 896 q 753 831 738 867 q 754 760 768 796 l 483 61 z "},"W":{"ha":1033,"x_min":49,"x_max":985,"o":"m 328 0 q 220 22 269 0 q 134 81 171 43 q 75 171 97 119 q 49 282 53 222 l 49 793 q 75 860 49 832 q 140 888 101 888 q 207 860 181 888 q 233 793 233 832 l 233 292 q 262 226 233 253 q 328 199 290 199 q 394 226 365 199 q 422 292 422 253 l 422 406 q 449 472 422 444 q 517 500 476 500 q 583 472 556 500 q 610 406 610 444 l 610 292 q 637 226 610 253 q 701 199 664 199 q 769 226 742 199 q 796 292 796 253 l 796 793 q 824 860 796 832 q 890 888 851 888 q 956 860 928 888 q 985 793 985 832 l 985 282 q 961 174 983 225 q 901 85 939 124 q 811 23 863 46 q 701 0 760 0 q 603 18 651 0 q 517 72 554 36 q 430 20 476 39 q 328 0 383 1 z "},"X":{"ha":996,"x_min":47,"x_max":947,"o":"m 919 22 q 853 -3 892 -4 q 789 24 815 -3 l 499 315 l 207 26 q 141 -1 179 -1 q 76 26 103 0 q 48 92 47 54 q 76 158 49 131 l 368 447 l 85 735 q 58 800 57 761 q 85 865 58 839 q 151 893 113 893 q 217 865 190 893 l 500 579 l 786 863 q 852 889 814 889 q 919 860 890 889 q 945 794 946 833 q 918 729 944 756 l 632 446 l 921 154 q 947 89 947 128 q 919 22 947 50 z "},"Y":{"ha":933,"x_min":21,"x_max":914,"o":"m 60 868 q 131 889 90 893 q 199 853 172 885 l 467 522 l 736 853 q 803 889 763 885 q 875 868 844 893 q 910 801 907 842 q 889 729 914 761 l 564 331 l 564 99 q 535 29 564 58 q 465 0 506 0 q 397 29 425 0 q 368 99 368 58 l 368 332 l 46 729 q 24 801 21 761 q 60 868 28 842 z "},"Z":{"ha":775,"x_min":49,"x_max":726,"o":"m 633 188 q 700 160 674 188 q 726 94 726 132 q 700 27 726 54 q 633 0 674 0 l 144 0 q 96 15 117 1 q 64 49 75 28 q 53 94 53 69 q 67 144 53 119 l 68 146 l 449 700 l 142 700 q 76 726 104 700 q 49 793 49 753 q 76 860 49 832 q 142 888 104 888 l 631 888 q 678 872 657 886 q 712 837 700 858 q 724 790 724 815 q 708 739 724 764 l 325 188 l 633 188 z "},"À":{"ha":729,"x_min":22,"x_max":768,"o":"m 754 126 q 753 55 768 90 q 701 4 738 19 q 630 6 665 -10 q 581 60 594 22 l 568 90 l 222 90 l 211 60 q 162 6 197 22 q 90 4 126 -10 q 38 55 54 19 q 36 126 22 90 l 308 825 q 344 868 319 850 q 396 886 369 886 q 448 869 424 886 q 483 825 472 853 l 754 126 m 281 240 l 510 240 l 396 535 l 281 240 m 124 1142 q 167 1198 133 1179 q 236 1207 201 1217 l 404 1163 q 462 1119 443 1151 q 471 1049 481 1086 q 427 990 461 1010 q 356 979 393 969 l 189 1025 q 133 1068 151 1035 q 124 1142 114 1101 z "},"Á":{"ha":729,"x_min":22,"x_max":768,"o":"m 754 126 q 753 55 768 90 q 701 4 738 19 q 630 6 665 -10 q 581 60 594 22 l 568 90 l 222 90 l 211 60 q 162 6 197 22 q 90 4 126 -10 q 38 55 54 19 q 36 126 22 90 l 308 825 q 344 868 319 850 q 396 886 369 886 q 448 869 424 886 q 483 825 472 853 l 754 126 m 281 240 l 510 240 l 396 535 l 281 240 m 647 1142 q 638 1068 657 1101 q 582 1025 619 1035 l 415 979 q 344 990 378 969 q 300 1049 310 1010 q 309 1119 290 1086 q 367 1163 328 1151 l 535 1207 q 603 1198 569 1217 q 647 1142 638 1179 z "},"Â":{"ha":729,"x_min":22,"x_max":768,"o":"m 754 126 q 753 55 768 90 q 701 4 738 19 q 630 6 665 -10 q 581 60 594 22 l 568 90 l 222 90 l 211 60 q 162 6 197 22 q 90 4 126 -10 q 38 55 54 19 q 36 126 22 90 l 308 825 q 344 868 319 850 q 396 886 369 886 q 448 869 424 886 q 483 825 472 853 l 754 126 m 281 240 l 510 240 l 396 535 l 281 240 m 278 971 q 213 944 251 944 q 147 972 175 944 q 126 1040 119 1001 q 160 1104 133 1078 l 326 1271 q 392 1298 354 1299 q 461 1271 431 1297 l 642 1104 q 676 1038 669 1076 q 654 971 682 999 q 589 944 628 944 q 522 971 550 943 l 393 1086 l 278 971 z "},"Ã":{"ha":729,"x_min":22,"x_max":768,"o":"m 754 126 q 753 55 768 90 q 701 4 738 19 q 630 6 665 -10 q 581 60 594 22 l 568 90 l 222 90 l 211 60 q 162 6 197 22 q 90 4 126 -10 q 38 55 54 19 q 36 126 22 90 l 308 825 q 344 868 319 850 q 396 886 369 886 q 448 869 424 886 q 483 825 472 853 l 754 126 m 281 240 l 510 240 l 396 535 l 281 240 m 407 1207 l 475 1169 q 510 1158 497 1154 q 540 1183 522 1161 q 591 1228 558 1214 q 660 1221 624 1242 q 706 1164 694 1201 q 693 1085 718 1126 q 635 1016 668 1042 q 558 981 603 990 q 463 981 514 971 q 385 1008 411 992 l 315 1046 q 278 1053 294 1060 q 251 1031 261 1047 q 199 988 232 1001 q 131 994 167 974 q 85 1051 96 1014 q 97 1131 74 1089 q 155 1199 122 1174 q 232 1234 188 1224 q 326 1235 276 1244 q 407 1207 375 1225 z "},"Ä":{"ha":729,"x_min":22,"x_max":768,"o":"m 754 126 q 753 55 768 90 q 701 4 738 19 q 630 6 665 -10 q 581 60 594 22 l 568 90 l 222 90 l 211 60 q 162 6 197 22 q 90 4 126 -10 q 38 55 54 19 q 36 126 22 90 l 308 825 q 344 868 319 850 q 396 886 369 886 q 448 869 424 886 q 483 825 472 853 l 754 126 m 281 240 l 510 240 l 396 535 l 281 240 m 356 1097 q 328 1031 356 1058 q 260 1003 300 1003 q 194 1031 221 1003 q 167 1097 167 1058 q 194 1164 167 1136 q 260 1192 221 1192 q 328 1164 300 1192 q 356 1097 356 1136 m 624 1097 q 596 1031 624 1058 q 528 1003 568 1003 q 462 1031 489 1003 q 435 1097 435 1058 q 462 1164 435 1136 q 528 1192 489 1192 q 596 1164 568 1192 q 624 1097 624 1136 z "},"È":{"ha":640,"x_min":32,"x_max":615,"o":"m 522 188 q 588 160 561 188 q 615 94 615 132 q 588 27 615 54 q 522 0 561 0 l 125 0 q 60 27 89 0 q 32 94 32 54 l 32 793 q 58 858 32 829 q 125 888 85 888 l 522 888 q 588 860 561 888 q 615 793 615 832 q 588 726 615 753 q 522 700 561 700 l 217 700 l 217 542 l 429 542 q 494 514 467 542 q 522 447 522 486 q 494 381 522 408 q 429 354 467 354 l 217 354 l 217 188 l 522 188 m 111 1143 q 155 1199 121 1181 q 224 1208 189 1218 l 392 1164 q 449 1120 431 1153 q 458 1050 468 1088 q 415 991 449 1011 q 343 981 381 971 l 176 1026 q 120 1069 139 1036 q 111 1143 101 1103 z "},"É":{"ha":640,"x_min":32,"x_max":615,"o":"m 522 188 q 588 160 561 188 q 615 94 615 132 q 588 27 615 54 q 522 0 561 0 l 125 0 q 60 27 89 0 q 32 94 32 54 l 32 793 q 58 858 32 829 q 125 888 85 888 l 522 888 q 588 860 561 888 q 615 793 615 832 q 588 726 615 753 q 522 700 561 700 l 217 700 l 217 542 l 429 542 q 494 514 467 542 q 522 447 522 486 q 494 381 522 408 q 429 354 467 354 l 217 354 l 217 188 l 522 188 m 561 1143 q 552 1069 571 1103 q 496 1026 533 1036 l 329 981 q 258 991 292 971 q 214 1050 224 1011 q 223 1120 204 1088 q 281 1164 242 1153 l 449 1208 q 517 1199 483 1218 q 561 1143 551 1181 z "},"Ê":{"ha":639,"x_min":51,"x_max":635,"o":"m 542 188 q 608 160 581 188 q 635 94 635 132 q 608 27 635 54 q 542 0 581 0 l 144 0 q 80 27 108 0 q 51 94 51 54 l 51 793 q 78 858 51 829 q 144 888 104 888 l 542 888 q 608 860 581 888 q 635 793 635 832 q 608 726 635 753 q 542 700 581 700 l 236 700 l 236 542 l 449 542 q 514 514 486 542 q 542 447 542 486 q 514 381 542 408 q 449 354 486 354 l 236 354 l 236 188 l 542 188 m 217 971 q 152 944 190 944 q 86 972 114 944 q 65 1040 58 1001 q 99 1104 72 1078 l 265 1271 q 331 1298 293 1299 q 400 1271 369 1297 l 581 1104 q 615 1038 608 1076 q 593 971 621 999 q 528 944 567 944 q 461 971 489 943 l 332 1086 l 217 971 z "},"Ë":{"ha":639,"x_min":51,"x_max":635,"o":"m 542 188 q 608 160 581 188 q 635 94 635 132 q 608 27 635 54 q 542 0 581 0 l 144 0 q 80 27 108 0 q 51 94 51 54 l 51 793 q 78 858 51 829 q 144 888 104 888 l 542 888 q 608 860 581 888 q 635 793 635 832 q 608 726 635 753 q 542 700 581 700 l 236 700 l 236 542 l 449 542 q 514 514 486 542 q 542 447 542 486 q 514 381 542 408 q 449 354 486 354 l 236 354 l 236 188 l 542 188 m 306 1096 q 278 1029 306 1057 q 210 1001 250 1001 q 144 1029 171 1001 q 117 1096 117 1057 q 144 1163 117 1135 q 210 1190 171 1190 q 278 1163 250 1190 q 306 1096 306 1135 m 574 1096 q 546 1029 574 1057 q 478 1001 518 1001 q 412 1029 439 1001 q 385 1096 385 1057 q 412 1163 385 1135 q 478 1190 439 1190 q 546 1163 518 1190 q 574 1096 574 1135 z "},"Ì":{"ha":368,"x_min":-68,"x_max":299,"o":"m 200 886 q 265 858 238 886 q 292 793 292 831 l 292 93 q 265 27 292 54 q 200 0 238 0 q 133 27 160 0 q 106 93 106 54 l 106 793 q 133 858 106 831 q 200 886 160 886 m -58 1143 q -15 1199 -49 1181 q 54 1208 19 1218 l 222 1164 q 280 1120 261 1153 q 289 1050 299 1088 q 245 991 279 1011 q 174 981 211 971 l 7 1026 q -49 1069 -31 1036 q -58 1143 -68 1103 z "},"Í":{"ha":368,"x_min":107,"x_max":474,"o":"m 203 886 q 267 858 240 886 q 294 793 294 831 l 294 93 q 267 27 294 54 q 203 0 240 0 q 135 27 163 0 q 108 93 108 54 l 108 793 q 135 858 108 831 q 203 886 163 886 m 464 1140 q 455 1067 474 1100 q 399 1024 436 1033 l 232 978 q 160 988 194 968 q 117 1047 126 1008 q 126 1117 107 1085 q 183 1161 144 1150 l 351 1206 q 420 1197 386 1215 q 464 1140 454 1178 z "},"Î":{"ha":479,"x_min":-24,"x_max":539,"o":"m 257 886 q 322 858 294 886 q 349 793 349 831 l 349 93 q 322 27 349 54 q 257 0 294 0 q 190 27 217 0 q 163 93 163 54 l 163 793 q 190 858 163 831 q 257 886 217 886 m 135 968 q 70 942 108 942 q 4 969 32 942 q -17 1037 -24 999 q 17 1101 -10 1075 l 183 1268 q 249 1295 211 1296 q 318 1268 288 1294 l 499 1101 q 533 1035 526 1074 q 511 968 539 996 q 446 941 485 942 q 379 968 407 940 l 250 1083 l 135 968 z "},"Ï":{"ha":513,"x_min":44,"x_max":501,"o":"m 274 886 q 338 858 311 886 q 365 793 365 831 l 365 93 q 338 27 365 54 q 274 0 311 0 q 206 27 233 0 q 179 93 179 54 l 179 793 q 206 858 179 831 q 274 886 233 886 m 233 1097 q 206 1031 233 1058 q 138 1003 178 1003 q 72 1031 99 1003 q 44 1097 44 1058 q 72 1164 44 1136 q 138 1192 99 1192 q 206 1164 178 1192 q 233 1097 233 1136 m 501 1097 q 474 1031 501 1058 q 406 1003 446 1003 q 340 1031 367 1003 q 313 1097 313 1058 q 340 1164 313 1136 q 406 1192 367 1192 q 474 1164 446 1192 q 501 1097 501 1136 z "},"Ù":{"ha":729,"x_min":46,"x_max":719,"o":"m 383 4 q 250 31 311 4 q 144 103 189 57 q 73 210 99 149 q 46 340 47 271 l 46 801 q 74 863 46 838 q 138 888 101 888 q 201 860 174 888 q 229 797 229 833 l 229 333 q 242 275 229 303 q 275 228 254 247 q 324 197 296 208 q 382 185 351 185 q 444 197 415 185 q 494 231 472 210 q 527 280 515 251 q 539 340 539 308 l 539 801 q 566 863 539 839 q 631 888 593 888 q 694 860 668 886 q 719 797 719 833 l 719 329 q 692 200 719 260 q 618 97 664 140 q 511 28 572 53 q 383 4 450 4 m 182 1135 q 226 1191 192 1172 q 294 1200 260 1210 l 463 1156 q 520 1112 501 1144 q 529 1042 539 1079 q 485 983 519 1003 q 414 972 451 963 l 247 1018 q 191 1061 210 1028 q 182 1135 172 1094 z "},"Ú":{"ha":729,"x_min":46,"x_max":719,"o":"m 383 4 q 250 31 311 4 q 144 103 189 57 q 73 210 99 149 q 46 340 47 271 l 46 801 q 74 863 46 838 q 138 888 101 888 q 201 860 174 888 q 229 797 229 833 l 229 333 q 242 275 229 303 q 275 228 254 247 q 324 197 296 208 q 382 185 351 185 q 444 197 415 185 q 494 231 472 210 q 527 280 515 251 q 539 340 539 308 l 539 801 q 566 863 539 839 q 631 888 593 888 q 694 860 668 886 q 719 797 719 833 l 719 329 q 692 200 719 260 q 618 97 664 140 q 511 28 572 53 q 383 4 450 4 m 583 1133 q 574 1060 593 1093 q 518 1017 556 1026 l 351 971 q 280 981 314 961 q 236 1040 246 1001 q 245 1110 226 1078 q 303 1154 264 1143 l 471 1199 q 540 1190 506 1208 q 583 1133 574 1171 z "},"Û":{"ha":729,"x_min":46,"x_max":719,"o":"m 383 4 q 250 31 311 4 q 144 103 189 57 q 73 210 99 149 q 46 340 47 271 l 46 801 q 74 863 46 838 q 138 888 101 888 q 201 860 174 888 q 229 797 229 833 l 229 333 q 242 275 229 303 q 275 228 254 247 q 324 197 296 208 q 382 185 351 185 q 444 197 415 185 q 494 231 472 210 q 527 280 515 251 q 539 340 539 308 l 539 801 q 566 863 539 839 q 631 888 593 888 q 694 860 668 886 q 719 797 719 833 l 719 329 q 692 200 719 260 q 618 97 664 140 q 511 28 572 53 q 383 4 450 4 m 264 958 q 199 932 238 932 q 133 960 161 932 q 113 1027 106 989 q 146 1092 119 1065 l 313 1258 q 378 1285 340 1286 q 447 1258 417 1285 l 628 1092 q 662 1025 656 1064 q 640 958 668 986 q 575 931 614 932 q 508 958 536 931 l 379 1074 l 264 958 z "},"Š":{"ha":700,"x_min":36,"x_max":668,"o":"m 449 1249 q 499 1269 469 1269 q 550 1249 529 1269 q 572 1196 572 1225 q 551 1146 572 1167 l 397 992 q 346 970 375 969 q 293 992 317 971 l 128 1146 q 106 1197 106 1167 q 128 1249 107 1228 q 179 1270 149 1269 q 231 1249 210 1271 l 346 1146 l 449 1249 m 400 185 q 456 213 433 189 q 481 274 478 238 q 457 330 479 307 q 400 351 435 353 l 306 351 q 207 375 254 354 q 122 433 160 396 q 63 519 85 469 q 42 625 40 569 q 63 727 42 679 q 120 809 83 775 q 207 864 157 843 q 281 883 242 878 q 347 889 313 889 q 419 882 388 889 q 525 844 476 872 q 603 785 549 836 q 617 764 610 776 q 629 739 625 751 q 617 668 638 701 q 557 626 596 635 q 504 631 526 619 q 461 661 482 643 q 417 697 439 685 q 353 708 394 708 q 286 699 313 708 q 243 671 260 690 q 226 622 226 651 q 249 565 225 588 q 313 540 274 542 l 401 539 q 516 517 469 540 q 594 459 563 494 q 647 376 625 424 q 668 271 668 328 q 646 170 667 219 q 588 84 625 121 q 502 26 551 47 q 399 3 453 4 l 376 1 q 346 1 361 0 q 274 8 306 1 q 168 46 217 18 q 51 163 94 88 q 41 186 46 172 q 36 213 36 200 q 64 279 36 251 q 131 307 92 307 q 181 291 161 307 q 215 251 200 275 q 261 207 232 224 q 322 183 285 193 q 334 183 325 183 q 352 181 343 182 q 400 185 361 181 z "},"š":{"ha":883,"x_min":15,"x_max":849,"o":"m 611 1026 q 662 1047 632 1047 q 713 1026 692 1047 q 735 974 735 1003 q 714 924 735 944 l 560 769 q 508 748 538 747 q 456 769 479 749 l 290 924 q 269 975 268 944 q 290 1026 269 1006 q 342 1048 311 1047 q 393 1026 372 1049 l 508 924 l 611 1026 m 747 575 q 820 467 794 528 q 847 344 846 407 q 826 218 849 281 q 756 107 804 156 l 740 92 q 638 25 690 47 q 507 1 578 0 q 378 26 436 1 q 272 99 319 51 q 255 128 261 113 q 250 160 249 143 q 258 192 251 176 q 278 219 265 208 q 341 246 303 246 q 406 219 379 246 q 507 182 446 182 q 568 193 540 181 q 618 226 596 206 q 652 276 640 247 q 664 338 664 306 l 664 346 q 653 396 663 371 q 618 447 642 424 q 569 481 597 469 q 512 493 540 492 q 455 483 483 494 q 406 451 426 472 l 174 219 q 110 194 149 194 q 46 221 71 194 q 17 283 19 246 q 42 346 15 321 l 271 575 q 382 649 321 624 q 508 674 443 674 q 634 650 572 675 q 747 575 696 625 z "},"ñ":{"ha":729,"x_min":43,"x_max":717,"o":"m 381 676 q 508 652 447 676 q 615 584 569 628 q 689 481 661 540 q 717 351 717 421 l 717 94 q 691 32 717 58 q 628 4 665 6 q 563 28 590 4 q 536 90 536 53 l 536 340 q 524 401 536 372 q 491 450 513 429 q 441 483 469 471 q 379 496 413 496 q 321 484 349 496 q 272 453 293 472 q 239 406 251 433 q 226 347 226 378 l 226 94 q 199 31 226 58 q 135 4 171 4 q 71 29 99 4 q 43 90 43 54 l 43 340 q 70 471 44 410 q 141 578 96 532 q 247 650 186 624 q 381 676 308 676 m 392 985 l 460 947 q 494 935 482 932 q 525 961 507 939 q 576 1006 543 992 q 644 999 608 1019 q 691 942 679 979 q 678 863 703 904 q 620 794 653 819 q 543 758 588 768 q 447 759 499 749 q 369 786 396 769 l 300 824 q 263 831 279 838 q 236 808 246 825 q 184 765 217 779 q 115 772 151 751 q 69 829 81 792 q 82 908 58 867 q 140 976 107 951 q 217 1012 172 1001 q 310 1013 261 1022 q 392 985 360 1003 z "},"Ý":{"ha":735,"x_min":21,"x_max":914,"o":"m 60 868 q 131 889 90 893 q 199 853 172 885 l 467 522 l 736 853 q 803 889 763 885 q 875 868 844 893 q 910 801 907 842 q 889 729 914 761 l 564 331 l 564 99 q 535 29 564 58 q 465 0 506 0 q 397 29 425 0 q 368 99 368 58 l 368 332 l 46 729 q 24 801 21 761 q 60 868 28 842 m 721 1142 q 712 1068 731 1101 q 656 1025 693 1035 l 489 979 q 417 990 451 969 q 374 1049 383 1010 q 383 1119 364 1086 q 440 1163 401 1151 l 608 1207 q 677 1198 643 1217 q 721 1142 711 1179 z "},"Ñ":{"ha":729,"x_min":46,"x_max":719,"o":"m 383 883 q 511 859 450 883 q 618 791 572 835 q 692 688 664 747 q 719 558 719 628 l 719 90 q 694 28 719 54 q 631 0 668 1 q 566 24 593 0 q 539 86 539 49 l 539 547 q 527 608 539 579 q 494 657 515 636 q 444 690 472 678 q 382 703 415 703 q 324 691 351 703 q 275 660 296 679 q 242 613 254 640 q 229 554 229 585 l 229 90 q 201 27 229 54 q 138 0 174 0 q 74 25 101 0 q 46 86 46 50 l 46 547 q 73 678 47 617 q 144 785 99 739 q 250 857 189 831 q 383 883 311 883 m 394 1206 l 463 1168 q 497 1156 485 1153 q 528 1182 510 1160 q 578 1226 546 1213 q 647 1219 611 1240 q 694 1163 682 1200 q 681 1083 706 1125 q 623 1015 656 1040 q 546 979 590 989 q 450 980 501 969 q 372 1007 399 990 l 303 1044 q 265 1052 282 1058 q 239 1029 249 1046 q 187 986 219 1000 q 118 993 154 972 q 72 1050 83 1013 q 85 1129 61 1088 q 142 1197 110 1172 q 219 1233 175 1222 q 313 1233 264 1243 q 394 1206 363 1224 z "},"~":{"ha":719,"x_min":38,"x_max":682,"o":"m 371 514 l 439 476 q 472 469 451 464 q 504 490 493 474 q 555 535 522 521 q 624 528 588 549 q 670 471 658 508 q 657 392 682 433 q 599 323 632 349 q 522 288 567 297 q 431 286 478 278 q 406 293 418 290 q 349 315 375 299 l 279 353 q 246 360 267 364 q 215 338 225 354 q 163 294 196 308 q 94 301 131 281 q 49 358 60 321 q 61 438 38 396 q 119 506 86 481 q 196 541 151 531 q 288 542 240 551 q 304 536 296 539 q 371 514 339 532 z "},"¥":{"ha":735,"x_min":28,"x_max":707,"o":"m 539 301 q 603 275 576 301 q 629 211 629 249 q 603 147 629 174 q 539 121 576 121 l 457 121 l 457 90 q 431 26 457 53 q 367 0 404 0 q 303 26 329 0 q 276 90 276 53 l 276 121 l 194 121 q 131 147 157 121 q 104 211 104 174 q 131 275 104 249 q 194 301 157 301 l 276 301 l 276 338 l 196 338 q 131 365 157 338 q 104 429 104 392 q 129 492 104 465 q 190 521 154 518 l 49 735 q 34 806 28 768 q 72 867 40 843 q 142 882 104 889 q 201 842 181 875 l 367 607 l 529 842 q 590 882 551 875 q 658 867 628 889 q 699 806 692 843 q 683 735 707 768 l 542 521 q 603 492 578 519 q 629 429 629 465 q 603 365 629 392 q 539 338 576 338 l 457 338 l 457 301 l 539 301 z "},"€":{"ha":754,"x_min":28,"x_max":718,"o":"m 625 303 q 690 276 663 303 q 718 208 718 249 q 713 182 718 194 q 701 156 708 169 q 588 42 661 85 q 429 0 514 0 q 311 24 368 0 q 210 91 254 49 q 140 190 167 133 q 126 229 132 210 l 119 229 q 54 254 81 229 q 28 317 28 279 q 54 381 28 354 q 115 408 79 407 l 115 461 q 54 488 79 463 q 28 553 28 515 q 54 615 28 590 q 119 640 81 640 q 139 690 129 665 q 207 791 164 747 q 307 860 250 835 q 429 886 364 886 q 586 844 513 886 q 703 726 660 801 q 713 703 708 717 q 718 676 718 689 q 690 610 718 638 q 624 582 663 582 q 574 598 593 582 q 539 638 554 614 q 494 682 522 665 q 429 699 465 699 q 380 689 403 699 q 339 661 357 679 q 322 640 329 651 l 338 640 q 401 615 375 640 q 428 553 428 590 q 401 488 428 515 q 338 461 375 461 l 301 461 l 301 408 l 338 408 q 401 381 375 408 q 428 317 428 354 q 401 254 428 279 q 338 229 375 229 l 335 229 l 339 224 q 380 197 357 207 q 429 188 403 188 q 493 204 465 188 q 539 249 521 221 q 571 288 554 272 q 625 303 588 303 z "},"#":{"ha":825,"x_min":26,"x_max":800,"o":"m 646 474 l 631 421 q 697 393 669 421 q 724 326 724 365 q 697 260 724 288 q 631 232 669 232 l 571 232 l 518 67 q 472 11 507 29 q 400 6 438 -7 q 344 51 363 17 q 339 122 326 85 l 374 232 l 318 232 l 265 67 q 220 11 254 29 q 149 6 186 -7 q 93 51 111 17 q 88 122 75 85 l 122 232 l 121 232 q 53 260 81 232 q 26 326 26 288 q 53 393 26 365 q 121 421 81 421 l 181 421 l 197 474 q 130 501 157 474 q 103 568 103 528 q 130 633 103 606 q 197 660 157 660 l 256 660 l 307 824 q 353 878 318 861 q 426 885 389 896 q 480 839 463 874 q 488 768 497 804 l 451 660 l 508 660 l 558 824 q 606 879 572 861 q 676 885 640 897 q 733 840 715 875 q 740 768 751 806 l 706 660 q 772 633 744 660 q 800 568 800 606 q 772 501 800 528 q 706 474 744 474 l 646 474 m 450 474 l 393 474 l 379 421 l 433 421 l 450 474 z "},"£":{"ha":743,"x_min":31,"x_max":722,"o":"m 404 393 q 377 326 404 354 q 311 299 350 299 l 310 299 l 310 186 l 629 186 q 695 158 668 186 q 722 93 722 131 q 695 27 722 54 q 629 0 668 0 l 218 0 q 151 27 178 0 q 124 94 124 54 l 124 299 q 57 326 83 299 q 31 393 31 354 q 57 460 31 433 q 124 488 83 488 l 124 638 q 142 731 124 686 q 194 811 161 776 q 271 867 226 846 q 365 888 315 888 q 435 865 407 888 q 467 796 464 842 q 440 733 467 758 q 374 704 414 707 q 328 683 349 704 q 310 638 310 664 l 310 488 q 377 460 350 488 q 404 393 404 433 z "},"Ÿ":{"ha":735,"x_min":21,"x_max":914,"o":"m 60 868 q 131 889 90 893 q 199 853 172 885 l 467 522 l 736 853 q 803 889 763 885 q 875 868 844 893 q 910 801 907 842 q 889 729 914 761 l 564 331 l 564 99 q 535 29 564 58 q 465 0 506 0 q 397 29 425 0 q 368 99 368 58 l 368 332 l 46 729 q 24 801 21 761 q 60 868 28 842 m 428 1099 q 400 1032 428 1060 q 332 1004 372 1004 q 266 1032 293 1004 q 239 1099 239 1060 q 266 1165 239 1138 q 332 1193 293 1193 q 400 1165 372 1193 q 428 1099 428 1138 m 696 1099 q 668 1032 696 1060 q 600 1004 640 1004 q 534 1032 561 1004 q 507 1099 507 1060 q 534 1165 507 1138 q 600 1193 561 1193 q 668 1165 640 1193 q 696 1099 696 1138 z "},"@":{"ha":1017,"x_min":35,"x_max":986,"o":"m 511 886 q 696 849 610 886 q 847 747 782 811 q 949 595 911 682 q 986 410 986 508 q 984 353 986 382 q 972 296 982 324 q 901 200 953 238 q 783 160 850 163 q 656 207 711 160 q 511 160 592 160 q 416 179 461 160 q 337 233 371 199 q 282 312 303 267 q 261 410 261 357 q 281 507 261 461 q 334 587 300 553 q 414 640 368 621 q 511 660 460 660 q 631 629 576 660 q 718 549 685 599 q 749 483 738 518 q 760 410 760 449 q 758 385 760 397 q 756 363 756 374 q 782 336 756 336 q 797 342 790 336 q 807 357 804 349 q 811 410 811 382 q 771 558 811 493 q 663 668 732 626 q 511 710 594 710 q 394 686 449 710 q 299 622 340 663 q 235 526 258 581 q 211 410 211 472 q 235 293 211 347 q 299 198 258 239 q 394 133 340 157 q 511 110 449 110 q 600 124 560 110 q 636 131 618 131 q 698 105 672 131 q 724 43 724 79 q 707 -8 724 15 q 663 -42 690 -31 q 511 -67 589 -67 q 326 -29 413 -67 q 174 73 239 8 q 72 224 110 138 q 35 410 35 311 q 72 595 35 508 q 174 747 110 682 q 326 849 239 811 q 511 886 413 886 m 511 483 q 458 462 479 483 q 438 410 438 440 q 458 358 438 379 q 511 336 479 336 q 563 358 542 336 q 585 410 585 379 q 563 462 585 440 q 511 483 542 483 z "},"–":{"ha":632,"x_min":46,"x_max":586,"o":"m 586 418 q 559 351 586 379 q 493 324 532 324 l 139 324 q 72 351 99 324 q 46 418 46 379 q 72 485 46 458 q 139 513 99 513 l 493 513 q 559 485 532 513 q 586 418 586 458 z "},"—":{"ha":746,"x_min":47,"x_max":699,"o":"m 699 418 q 672 351 699 379 q 606 324 644 324 l 140 324 q 74 351 100 324 q 47 418 47 379 q 74 485 47 458 q 140 513 100 513 l 606 513 q 672 485 644 513 q 699 418 699 458 z "},"_":{"ha":746,"x_min":47,"x_max":699,"o":"m 699 96 q 672 29 699 57 q 606 1 644 1 l 140 1 q 74 29 100 1 q 47 96 47 57 q 74 163 47 136 q 140 190 100 190 l 606 190 q 672 163 644 190 q 699 96 699 136 z "},"¢":{"ha":642,"x_min":21,"x_max":618,"o":"m 346 819 q 415 790 386 819 q 444 721 444 761 l 444 661 q 594 575 529 640 q 616 513 618 549 q 589 453 614 476 q 525 428 564 429 q 461 453 486 426 q 444 465 453 460 l 444 204 q 461 218 453 211 q 525 246 486 246 q 589 218 564 246 q 608 192 601 207 q 616 160 615 176 q 611 127 617 143 q 594 99 606 111 q 488 25 546 50 q 444 10 467 15 l 444 -18 q 415 -87 444 -58 q 346 -117 386 -117 q 277 -87 306 -117 q 249 -18 249 -58 l 249 18 q 228 26 238 22 q 121 100 167 54 q 48 207 75 146 q 21 336 21 268 q 48 464 21 403 q 122 571 75 525 q 229 644 168 617 l 249 653 l 249 721 q 277 790 249 761 q 346 819 306 819 m 214 394 q 201 336 201 367 q 214 276 201 304 q 249 225 226 247 l 249 444 q 214 394 226 422 z "},"¦":{"ha":289,"x_min":50,"x_max":236,"o":"m 144 886 q 209 858 182 886 q 236 793 236 831 l 236 -122 q 209 -188 236 -161 q 144 -215 182 -215 q 77 -188 104 -215 q 50 -122 50 -161 l 50 793 q 77 858 50 831 q 144 886 104 886 z "},"œ":{"ha":1221,"x_min":36,"x_max":1200,"o":"m 372 688 q 501 661 440 688 q 608 589 563 635 q 681 482 654 543 q 708 350 708 421 q 682 220 708 281 q 610 114 656 160 q 504 42 565 68 q 372 15 443 15 q 242 40 303 15 q 135 110 181 65 q 63 217 89 156 q 36 350 36 278 q 62 480 36 419 q 133 585 88 540 q 240 658 178 631 q 372 688 301 685 m 372 506 q 313 494 340 506 q 263 461 285 482 q 229 412 242 440 q 217 350 217 383 q 229 290 217 318 q 263 240 242 261 q 313 206 285 218 q 372 193 340 193 q 433 206 404 193 q 482 240 461 218 q 515 290 503 261 q 528 350 528 318 q 482 458 525 414 q 372 506 439 503 m 863 672 q 990 644 929 672 q 1098 570 1051 617 q 1172 463 1144 524 q 1200 336 1200 403 q 1173 279 1200 300 q 1106 260 1146 258 l 736 260 q 863 181 782 181 q 900 185 885 181 q 927 194 915 189 q 951 204 939 200 q 978 208 963 208 q 1028 192 1007 207 q 1060 153 1050 176 q 1067 104 1071 131 q 1043 56 1064 78 q 960 13 1006 25 q 863 0 914 1 q 735 24 796 -3 q 627 98 674 51 q 553 207 581 144 q 526 336 526 269 q 553 463 526 401 q 626 570 581 524 q 733 644 672 617 q 863 672 794 672 m 989 414 q 933 474 965 457 q 863 492 901 492 q 791 474 822 492 q 736 414 760 457 l 989 414 z "},"Ð":{"ha":936,"x_min":36,"x_max":901,"o":"m 460 888 q 768 760 636 888 q 901 444 900 633 q 772 133 901 267 q 460 0 643 0 l 225 0 q 159 27 188 0 q 131 94 131 54 l 131 324 q 63 351 89 324 q 36 418 36 379 q 63 485 36 458 q 131 513 89 513 l 131 793 q 158 858 131 829 q 225 888 185 888 l 460 888 m 417 418 q 390 351 417 379 q 318 324 363 324 l 318 189 l 460 189 q 641 260 564 188 q 718 444 718 332 q 640 626 714 553 q 460 699 567 700 l 318 699 l 318 513 q 390 485 363 513 q 417 418 417 458 z "},"Ø":{"ha":942,"x_min":28,"x_max":913,"o":"m 635 964 q 691 917 672 953 q 699 844 710 882 l 425 1 q 376 -54 413 -36 q 303 -61 340 -72 q 244 -15 264 -50 q 238 60 225 19 l 511 901 q 560 958 522 939 q 635 964 597 976 m 211 444 q 231 343 211 390 q 287 260 251 296 q 369 205 322 225 q 471 185 417 185 q 572 205 525 185 q 653 260 618 225 q 709 343 689 296 q 729 444 729 390 q 709 545 729 499 q 653 627 689 592 q 572 683 618 663 q 471 703 525 703 q 369 683 417 703 q 287 627 322 663 q 231 545 251 592 q 211 444 211 499 m 28 444 q 63 617 28 536 q 157 758 97 697 q 298 853 217 818 q 471 888 379 888 q 643 853 563 888 q 783 758 724 818 q 878 617 843 697 q 913 444 913 536 q 878 272 913 353 q 783 131 843 192 q 643 36 724 71 q 471 1 563 1 q 298 36 379 1 q 157 131 217 71 q 63 272 97 192 q 28 444 28 353 z "},"Æ":{"ha":1129,"x_min":-10,"x_max":1125,"o":"m 722 128 q 721 56 736 92 q 669 6 706 21 q 598 8 633 -8 q 549 61 563 24 l 536 92 l 190 92 l 179 61 q 130 8 165 24 q 58 6 94 -8 q 6 56 22 21 q 4 128 -10 92 l 276 826 q 313 869 288 851 q 364 888 338 888 q 416 871 392 888 q 451 826 440 854 l 722 128 m 249 242 l 478 242 l 364 536 l 249 242 m 1032 188 q 1098 160 1071 188 q 1125 94 1125 132 q 1098 27 1125 54 q 1032 0 1071 0 l 635 0 q 570 27 599 0 q 542 94 542 54 l 542 793 q 568 858 542 829 q 635 888 594 888 l 1032 888 q 1098 860 1071 888 q 1125 793 1125 832 q 1098 726 1125 753 q 1032 700 1071 700 l 726 700 l 726 542 l 939 542 q 1004 514 976 542 q 1032 447 1032 486 q 1004 381 1032 408 q 939 354 976 354 l 726 354 l 726 188 l 1032 188 z "},"÷":{"ha":569,"x_min":15,"x_max":556,"o":"m 556 418 q 528 485 556 458 q 463 513 501 513 l 108 513 q 42 485 68 513 q 15 418 15 458 q 42 351 15 379 q 108 324 68 324 l 463 324 q 528 351 501 324 q 556 418 556 379 m 372 176 q 344 110 372 138 q 276 82 317 82 q 210 110 238 82 q 183 176 183 138 q 210 243 183 215 q 276 271 238 271 q 344 243 317 271 q 372 176 372 215 m 372 661 q 344 594 372 622 q 276 567 317 567 q 210 594 238 567 q 183 661 183 622 q 210 728 183 700 q 276 756 238 756 q 344 728 317 756 q 372 661 372 700 z "},"µ":{"ha":747,"x_min":51,"x_max":726,"o":"m 636 674 q 701 647 675 674 q 726 585 726 621 l 726 347 q 699 209 726 272 q 626 100 672 146 q 518 28 579 54 q 389 1 457 1 q 306 10 347 1 q 233 39 265 19 l 233 -121 q 206 -186 233 -161 q 143 -211 178 -211 q 79 -186 107 -211 q 51 -125 51 -161 l 51 589 q 79 649 51 625 q 143 674 107 674 q 208 647 182 674 q 233 585 233 621 l 233 331 q 247 272 233 299 q 281 225 260 244 q 331 194 303 206 q 389 183 360 183 q 451 196 422 183 q 500 229 479 208 q 533 278 521 250 q 544 338 544 306 l 544 589 q 573 650 544 626 q 636 674 601 674 z "},"×":{"ha":710,"x_min":46,"x_max":665,"o":"m 513 618 q 574 644 539 644 q 638 617 610 643 q 663 554 663 592 q 638 490 663 517 l 485 336 l 638 182 q 664 119 663 157 q 638 53 665 81 q 574 28 613 28 q 508 57 536 28 l 356 207 l 203 53 q 140 28 178 31 q 75 53 103 25 q 48 115 50 78 q 72 179 46 151 l 229 336 l 72 493 q 49 554 46 519 q 75 617 51 589 q 140 644 106 647 q 203 617 175 642 l 356 464 l 513 618 z "},"•":{"ha":360,"x_min":36,"x_max":325,"o":"m 179 193 q 124 204 150 193 q 78 235 97 215 q 47 281 58 254 q 36 336 36 307 q 49 393 36 367 q 81 439 61 419 q 126 469 100 458 q 179 481 151 481 q 240 467 213 481 q 285 433 267 454 q 315 387 304 413 q 325 336 325 361 q 313 281 325 307 q 282 235 301 254 q 235 204 263 215 q 179 193 208 193 z "},"·":{"ha":263,"x_min":38,"x_max":226,"o":"m 226 338 q 199 271 226 299 q 131 243 171 243 q 65 271 92 243 q 38 338 38 299 q 65 404 38 376 q 131 432 92 432 q 199 404 171 432 q 226 338 226 376 z "}," ":{"ha":313,"x_min":0,"x_max":0,"o":""},"¼":{"ha":1150,"x_min":15,"x_max":1128,"o":"m 232 888 q 300 860 272 888 q 328 794 328 832 l 328 438 q 300 372 328 399 q 232 344 272 344 q 166 372 193 344 q 139 438 139 399 l 139 579 q 110 575 125 575 q 43 604 72 576 q 15 670 15 632 q 43 736 15 708 l 165 860 q 178 869 171 865 q 232 888 201 888 m 1128 94 q 1102 30 1128 57 q 1040 0 1076 3 l 1040 -96 q 1013 -148 1040 -121 q 944 -175 985 -175 q 880 -148 907 -175 q 853 -96 853 -121 l 853 0 l 717 0 q 651 27 678 0 q 624 94 624 54 l 624 96 l 722 464 q 772 517 740 500 q 840 521 804 535 q 897 469 878 507 q 896 397 915 432 l 829 188 l 853 188 q 881 251 854 225 q 944 278 908 278 q 1012 251 985 278 q 1040 188 1039 225 q 1102 158 1076 185 q 1128 94 1128 131 m 656 883 q 710 838 692 872 q 717 767 728 803 l 494 65 q 449 11 483 29 q 378 4 414 -7 q 322 49 340 15 q 315 122 304 83 l 538 822 q 584 878 549 860 q 656 883 619 896 z "},"½":{"ha":1113,"x_min":26,"x_max":1083,"o":"m 243 889 q 311 861 283 889 q 339 796 339 833 l 339 439 q 311 373 339 400 q 243 346 283 346 q 177 373 204 346 q 150 439 150 400 l 150 581 q 121 576 136 576 q 54 606 83 578 q 26 672 26 633 q 54 738 26 710 l 176 861 q 189 871 182 867 q 243 889 213 889 m 767 301 q 699 330 726 301 q 672 397 672 358 q 685 442 672 422 q 719 483 700 467 q 761 513 738 499 q 828 536 794 531 q 868 540 846 540 l 893 540 q 964 526 931 540 q 1022 486 997 511 q 1062 428 1047 461 q 1076 358 1076 394 q 1061 285 1076 318 q 1021 228 1046 253 l 981 190 l 989 190 q 1055 164 1026 190 q 1083 96 1083 138 q 1055 28 1083 57 q 989 0 1026 0 l 758 0 q 692 30 717 0 q 668 97 668 60 q 674 123 668 108 q 693 153 679 138 l 854 314 l 869 328 q 887 334 881 328 q 893 349 893 340 q 871 371 893 371 q 846 351 849 371 q 815 315 831 329 q 767 301 799 301 m 667 883 q 721 838 703 872 q 728 767 739 803 l 506 65 q 460 11 494 29 q 389 4 425 -7 q 333 49 351 15 q 326 122 315 83 l 549 822 q 595 878 560 860 q 667 883 631 896 z "},"¾":{"ha":1140,"x_min":15,"x_max":1117,"o":"m 110 585 q 158 572 142 585 q 189 536 174 558 q 214 518 192 518 q 230 524 224 518 q 236 539 236 531 q 230 553 236 547 q 213 560 224 560 l 208 561 q 180 578 192 567 q 167 621 168 589 q 172 643 167 633 q 183 660 176 653 q 196 670 189 667 q 207 675 203 674 l 213 676 q 230 683 224 676 q 236 697 236 689 q 230 712 236 706 q 214 718 224 718 q 189 700 192 718 q 158 665 174 678 q 110 651 142 651 q 42 678 69 651 q 15 742 15 706 q 19 767 15 754 q 28 788 22 781 q 104 861 58 838 q 136 874 119 868 q 171 883 153 881 q 211 888 189 888 l 236 888 q 307 874 274 888 q 365 836 340 860 q 405 781 390 813 q 419 717 419 750 q 408 662 419 682 q 375 618 396 642 q 408 574 396 594 q 419 519 419 553 q 405 455 419 486 q 365 400 390 424 q 307 363 340 376 q 236 349 274 349 l 211 349 q 171 353 189 349 q 136 362 153 356 q 104 375 119 368 q 28 449 58 399 q 19 469 22 456 q 15 494 15 482 q 42 558 15 531 q 110 585 69 585 m 1117 94 q 1091 30 1117 57 q 1029 0 1065 3 l 1029 -96 q 1001 -148 1029 -121 q 933 -175 974 -175 q 869 -148 896 -175 q 842 -96 842 -121 l 842 0 l 706 0 q 640 27 667 0 q 613 94 613 54 l 613 96 l 711 464 q 761 517 729 500 q 829 521 793 535 q 885 469 867 507 q 885 397 904 432 l 818 188 l 842 188 q 870 251 843 225 q 933 278 897 278 q 1001 251 974 278 q 1029 188 1028 225 q 1091 158 1065 185 q 1117 94 1117 131 m 700 883 q 754 838 736 872 q 761 767 772 803 l 539 65 q 493 11 528 29 q 422 4 458 -7 q 367 49 385 15 q 360 122 349 83 l 582 822 q 628 878 593 860 q 700 883 664 896 z "},"»":{"ha":915,"x_min":49,"x_max":888,"o":"m 660 329 l 489 514 q 463 580 463 540 q 489 644 464 619 q 557 674 518 674 q 624 647 596 674 l 860 396 q 887 328 886 365 q 858 261 888 290 l 622 26 q 558 0 596 0 q 492 28 519 0 q 464 94 464 56 q 490 158 464 132 l 660 329 m 247 329 l 76 514 q 49 581 49 542 q 76 646 50 619 q 143 674 104 674 q 210 647 182 675 l 446 397 q 473 328 472 367 q 446 263 474 290 l 210 26 q 145 0 183 0 q 78 28 107 0 q 50 94 50 56 q 76 158 50 132 l 247 329 z "},"¹":{"ha":375,"x_min":13,"x_max":325,"o":"m 229 889 q 297 861 269 889 q 325 796 325 833 l 325 439 q 297 373 325 400 q 229 346 269 346 q 163 373 190 346 q 136 439 136 400 l 136 581 q 107 576 122 576 q 40 606 69 578 q 13 672 13 633 q 40 738 13 710 l 163 861 q 175 871 168 867 q 229 889 199 889 z "},"¸":{"ha":329,"x_min":28,"x_max":310,"o":"m 169 -292 q 111 -280 138 -292 q 67 -247 85 -268 q 38 -200 49 -226 q 28 -146 28 -174 q 42 -117 29 -128 q 74 -106 56 -106 q 107 -119 93 -106 q 121 -151 121 -132 q 135 -186 121 -172 q 169 -200 149 -200 q 203 -186 189 -200 q 217 -151 217 -172 q 205 -120 217 -133 q 175 -104 193 -107 l 129 -104 q 97 -91 111 -103 q 83 -61 83 -79 l 83 -57 l 83 101 q 97 128 83 114 q 129 142 110 142 q 163 128 150 142 q 176 101 176 114 l 176 -10 q 237 -27 210 -11 q 282 -67 264 -43 q 303 -106 296 -85 q 310 -151 310 -128 q 299 -206 310 -181 q 268 -251 288 -232 q 224 -281 249 -269 q 169 -292 199 -292 z "},"Þ":{"ha":733,"x_min":51,"x_max":725,"o":"m 149 889 q 218 860 189 889 q 247 790 247 831 l 247 -87 q 218 -157 247 -128 q 149 -186 189 -186 q 80 -157 108 -186 q 51 -87 51 -128 l 51 790 q 80 860 51 831 q 149 889 108 889 m 142 886 q 176 880 160 888 q 206 860 193 872 q 226 830 219 847 q 233 794 233 813 l 233 635 q 334 667 282 660 q 438 667 386 675 q 538 637 489 660 q 628 575 586 614 q 701 467 676 525 q 725 336 725 410 q 698 206 725 267 q 625 99 671 144 q 518 26 579 53 q 389 0 457 0 q 261 27 322 0 q 153 100 200 54 q 79 207 107 146 q 51 336 51 268 l 51 801 q 60 834 51 818 q 81 862 68 850 q 109 881 93 874 q 142 886 125 888 m 233 336 q 246 276 233 304 q 280 226 258 247 q 329 193 301 206 q 389 181 357 181 q 448 193 419 181 q 498 226 476 206 q 532 276 519 247 q 544 336 544 304 q 532 397 544 368 q 498 446 519 425 q 448 479 476 467 q 389 492 419 492 q 329 478 357 492 q 280 444 301 465 q 246 394 258 422 q 233 336 233 365 z "},"ß":{"ha":679,"x_min":44,"x_max":638,"o":"m 365 888 l 371 889 q 475 868 426 889 q 560 810 524 847 q 617 725 596 774 q 638 621 638 676 q 620 524 638 568 q 572 443 603 479 q 620 363 603 408 q 638 268 638 318 q 617 163 638 213 q 560 78 596 114 q 475 20 524 42 q 371 -1 426 -1 l 369 -1 q 304 26 331 -1 q 278 90 278 53 q 304 157 278 131 q 369 183 331 183 l 371 183 q 431 208 406 183 q 456 268 456 232 q 431 328 456 304 q 371 353 406 353 l 368 353 q 303 379 329 353 q 276 443 276 406 q 303 508 276 481 q 368 535 329 535 l 371 535 q 431 560 406 535 q 456 621 456 585 q 435 674 456 651 q 408 690 424 683 q 358 700 385 700 q 309 690 332 700 q 269 663 286 681 q 241 622 251 644 q 231 571 231 599 l 231 94 q 204 28 231 56 q 139 0 178 0 q 72 28 99 0 q 44 94 44 56 l 44 571 q 73 695 47 638 q 140 796 99 753 q 238 863 182 839 q 358 888 294 888 l 365 888 z "},"ø":{"ha":728,"x_min":36,"x_max":708,"o":"m 372 674 q 501 647 440 674 q 608 575 563 621 q 681 468 654 529 q 708 336 708 407 q 682 206 708 267 q 610 100 656 146 q 504 28 565 54 q 372 1 443 1 q 242 26 303 1 q 135 97 181 51 q 63 203 89 142 q 36 336 36 264 q 62 466 36 406 q 133 572 88 526 q 240 644 178 617 q 372 674 301 671 m 372 492 q 313 480 340 492 q 263 447 285 468 q 229 398 242 426 q 217 336 217 369 q 229 276 217 304 q 263 226 242 247 q 313 192 285 204 q 372 179 340 179 q 433 192 404 179 q 482 226 461 204 q 515 276 503 247 q 528 336 528 304 q 482 444 525 400 q 372 492 439 489 m 508 774 q 563 728 544 763 q 569 657 581 693 l 347 -44 q 301 -99 336 -81 q 231 -106 267 -117 q 175 -60 193 -94 q 168 13 157 -26 l 390 713 q 437 768 401 750 q 508 774 472 786 z "},"ð":{"ha":625,"x_min":25,"x_max":583,"o":"m 574 208 q 537 126 563 164 q 476 60 511 88 q 397 16 440 32 q 304 0 353 0 q 195 22 246 0 q 107 82 144 44 q 47 170 69 119 q 25 279 25 221 q 47 388 25 338 q 107 476 69 439 q 195 536 144 514 q 304 558 246 558 q 353 553 329 558 q 400 542 376 549 l 400 613 q 372 677 399 650 q 304 704 344 704 l 303 704 l 276 704 q 212 731 239 704 q 185 796 185 758 q 212 861 185 835 q 276 888 239 888 l 329 888 q 428 860 383 885 q 506 796 474 835 q 559 709 539 757 q 583 613 579 661 l 583 279 q 581 242 583 260 q 574 208 578 225 m 304 374 q 236 347 264 374 q 208 279 208 319 q 236 211 208 239 q 304 183 264 183 q 372 211 344 183 q 400 279 400 239 q 372 347 400 319 q 304 374 344 374 z "},"ç":{"ha":653,"x_min":33,"x_max":631,"o":"m 371 672 q 607 575 510 672 q 628 513 631 549 q 601 453 626 476 q 538 428 576 429 q 474 453 499 426 q 371 492 431 492 q 310 478 339 492 q 260 444 282 465 q 226 394 239 422 q 214 336 214 367 q 226 276 214 304 q 261 226 239 247 q 311 192 283 204 q 371 181 339 179 q 474 218 432 181 q 538 246 499 246 q 601 218 576 246 q 621 192 614 207 q 628 160 628 176 q 624 127 629 143 q 607 99 618 111 q 500 25 558 50 q 371 0 442 0 q 240 27 301 0 q 133 100 179 54 q 60 207 88 146 q 33 336 33 268 q 60 464 33 403 q 134 571 88 525 q 242 644 181 617 q 371 672 303 672 m 399 -304 q 340 -292 367 -304 q 296 -260 314 -281 q 267 -212 278 -239 q 257 -158 257 -186 q 272 -129 258 -140 q 303 -118 285 -118 q 336 -131 322 -118 q 350 -164 350 -144 q 364 -199 350 -185 q 399 -212 378 -212 q 432 -199 418 -212 q 446 -164 446 -185 q 434 -133 446 -146 q 404 -117 422 -119 l 358 -117 q 326 -103 340 -115 q 313 -74 313 -92 l 313 -69 l 313 89 q 326 115 313 101 q 358 129 339 129 q 392 115 379 129 q 406 89 406 101 l 406 -22 q 466 -40 439 -24 q 511 -79 493 -56 q 532 -119 525 -97 q 539 -164 539 -140 q 528 -219 539 -193 q 497 -263 517 -244 q 453 -293 478 -282 q 399 -304 428 -304 z "},"Ç":{"ha":857,"x_min":33,"x_max":836,"o":"m 33 444 q 68 617 33 536 q 163 758 103 697 q 303 853 222 818 q 476 888 385 888 q 669 842 581 888 q 819 722 758 797 q 835 675 836 697 q 806 610 835 638 q 738 581 776 582 q 682 601 699 582 q 592 675 646 647 q 476 703 539 703 q 376 683 424 703 q 294 627 329 663 q 238 545 258 592 q 217 447 217 499 q 237 345 217 393 q 292 262 257 297 q 375 206 328 226 q 476 186 422 186 q 592 214 539 186 q 682 288 646 242 q 739 307 703 307 q 807 279 779 307 q 835 218 835 251 q 819 167 835 186 q 669 47 758 92 q 476 1 581 1 q 303 36 385 1 q 163 131 222 71 q 68 272 103 192 q 33 444 33 353 m 469 -337 q 411 -326 438 -337 q 367 -293 385 -314 q 338 -246 349 -272 q 328 -192 328 -219 q 342 -162 329 -174 q 374 -151 356 -151 q 407 -165 393 -151 q 421 -197 421 -178 q 435 -232 421 -218 q 469 -246 449 -246 q 503 -232 489 -246 q 517 -197 517 -218 q 505 -166 517 -179 q 475 -150 493 -153 l 429 -150 q 397 -137 411 -149 q 383 -107 383 -125 l 383 -103 l 383 56 q 397 82 383 68 q 429 96 410 96 q 463 82 450 96 q 476 56 476 68 l 476 -56 q 537 -73 510 -57 q 582 -112 564 -89 q 603 -152 596 -131 q 610 -197 610 -174 q 599 -252 610 -226 q 568 -297 588 -278 q 524 -326 549 -315 q 469 -337 499 -337 z "},"Å":{"ha":729,"x_min":22,"x_max":768,"o":"m 754 126 q 753 55 768 90 q 701 4 738 19 q 630 6 665 -10 q 581 60 594 22 l 568 90 l 222 90 l 211 60 q 162 6 197 22 q 90 4 126 -10 q 38 55 54 19 q 36 126 22 90 l 308 825 q 344 868 319 850 q 396 886 369 886 q 448 869 424 886 q 483 825 472 853 l 754 126 m 281 240 l 510 240 l 396 535 l 281 240 z "},"§":{"ha":725,"x_min":36,"x_max":692,"o":"m 336 771 q 279 749 303 771 q 249 692 256 728 q 266 630 247 658 q 319 600 285 601 l 413 599 q 506 566 463 592 q 583 501 550 540 q 634 410 617 461 q 644 306 651 358 q 613 206 639 253 q 579 161 599 182 l 586 153 q 636 63 619 114 q 647 -43 653 11 q 616 -140 642 -96 q 551 -215 590 -185 q 461 -260 513 -246 q 386 -272 426 -271 q 321 -271 356 -275 q 251 -257 281 -267 q 151 -211 196 -242 q 49 -85 83 -162 q 40 -60 43 -75 q 38 -33 36 -46 q 72 28 42 4 q 140 50 103 53 q 188 29 169 47 q 217 -14 206 11 q 258 -61 231 -43 q 315 -90 281 -78 q 340 -94 326 -93 q 401 -89 374 -99 q 443 -69 424 -82 q 467 -22 464 -51 q 449 41 471 13 q 396 75 426 69 l 344 75 q 318 76 329 75 q 254 89 283 81 q 206 108 228 96 q 128 174 161 135 q 78 261 94 213 q 68 365 63 310 q 99 461 75 415 q 133 511 114 489 q 125 519 129 515 q 76 609 93 560 q 65 713 60 658 q 97 809 71 763 q 162 888 122 856 q 252 937 201 921 q 356 950 303 953 l 378 949 q 407 946 393 949 q 478 932 447 942 q 576 885 532 917 q 679 760 646 836 q 688 735 685 749 q 690 708 692 721 q 656 646 686 671 q 588 625 625 621 q 540 645 557 628 q 511 688 524 663 q 469 736 497 718 q 413 765 449 751 q 400 767 410 765 l 382 769 q 336 771 375 771 m 249 336 q 280 274 249 300 q 356 249 311 249 q 432 274 400 249 q 464 336 464 300 q 432 399 464 372 q 356 425 400 425 q 280 399 311 425 q 249 336 249 372 z "},"‡":{"ha":561,"x_min":18,"x_max":543,"o":"m 279 889 q 349 860 319 889 q 378 790 378 831 l 378 -87 q 349 -157 378 -128 q 279 -186 319 -186 q 210 -157 239 -186 q 182 -87 182 -128 l 182 790 q 210 860 182 831 q 279 889 239 889 m 543 314 q 517 249 543 276 q 453 222 490 222 l 110 222 q 44 249 71 222 q 18 314 18 276 q 44 378 18 351 q 110 406 71 406 l 453 406 q 517 378 490 406 q 543 314 543 351 m 543 610 q 517 545 543 572 q 453 518 490 518 l 110 518 q 44 545 71 518 q 18 610 18 572 q 44 674 18 647 q 110 701 71 701 l 453 701 q 517 674 490 701 q 543 610 543 647 z "},"†":{"ha":565,"x_min":13,"x_max":553,"o":"m 282 889 q 351 860 322 889 q 381 790 381 831 l 381 -87 q 351 -157 381 -128 q 282 -186 322 -186 q 213 -157 242 -186 q 185 -87 185 -128 l 185 790 q 213 860 185 831 q 282 889 242 889 m 553 515 q 526 449 553 476 q 460 421 499 421 l 106 421 q 39 449 65 421 q 13 515 13 476 q 39 583 13 556 q 106 610 65 610 l 460 610 q 526 583 499 610 q 553 515 553 556 z "},"«":{"ha":914,"x_min":28,"x_max":867,"o":"m 425 158 q 451 94 451 132 q 424 28 451 56 q 358 0 396 0 q 293 26 319 0 l 57 261 q 28 328 28 290 q 56 396 29 365 l 292 647 q 358 674 319 674 q 426 644 397 674 q 452 580 451 619 q 426 514 453 540 l 256 329 l 425 158 m 839 158 q 865 94 865 132 q 838 28 865 56 q 770 0 808 0 q 706 26 732 0 l 469 263 q 442 328 442 290 q 469 397 443 367 l 706 647 q 772 674 733 675 q 839 646 811 674 q 866 581 865 619 q 839 514 867 542 l 668 329 l 839 158 z "},"°":{"ha":610,"x_min":36,"x_max":574,"o":"m 311 888 q 497 806 419 888 q 574 617 574 725 q 497 427 574 508 q 311 346 419 346 q 113 423 190 350 q 36 629 36 496 q 122 813 40 738 q 311 888 203 888 m 307 707 q 244 682 271 707 q 215 621 217 657 q 241 552 215 576 q 307 526 267 528 q 369 553 343 526 q 394 617 394 581 q 369 680 394 653 q 307 707 343 707 z "},"²":{"ha":496,"x_min":40,"x_max":456,"o":"m 139 649 q 72 677 99 649 q 44 744 44 706 q 57 789 44 769 q 91 830 72 814 q 133 860 110 846 q 200 883 167 878 q 240 888 218 888 l 265 888 q 336 873 303 888 q 394 833 369 858 q 434 775 419 808 q 449 706 449 742 q 433 633 449 665 q 393 575 418 600 l 353 538 l 361 538 q 427 511 399 538 q 456 443 456 485 q 427 376 456 404 q 361 347 399 347 l 131 347 q 65 377 89 347 q 40 444 40 407 q 46 470 40 456 q 65 500 51 485 l 226 661 l 242 675 q 259 681 253 675 q 265 696 265 688 q 243 718 265 718 q 218 699 221 718 q 187 663 203 676 q 139 649 171 649 z "},"³":{"ha":482,"x_min":38,"x_max":442,"o":"m 132 585 q 180 572 164 585 q 211 536 196 558 q 236 518 214 518 q 252 524 246 518 q 258 539 258 531 q 252 553 258 547 q 235 560 246 560 l 231 561 q 202 578 214 567 q 189 621 190 589 q 194 643 189 633 q 205 660 199 653 q 218 670 211 667 q 229 675 225 674 l 235 676 q 252 683 246 676 q 258 697 258 689 q 252 712 258 706 q 236 718 246 718 q 211 700 214 718 q 180 665 196 678 q 132 651 164 651 q 65 678 92 651 q 38 742 38 706 q 41 767 38 754 q 50 788 44 781 q 126 861 81 838 q 158 874 142 868 q 193 883 175 881 q 233 888 211 888 l 258 888 q 329 874 296 888 q 388 836 363 860 q 427 781 413 813 q 442 717 442 750 q 430 662 442 682 q 397 618 418 642 q 430 574 418 594 q 442 519 442 553 q 427 455 442 486 q 388 400 413 424 q 329 363 363 376 q 258 349 296 349 l 233 349 q 193 353 211 349 q 158 362 175 356 q 126 375 142 368 q 50 449 81 399 q 41 469 44 456 q 38 494 38 482 q 65 558 38 531 q 132 585 92 585 z "},"ƒ":{"ha":524,"x_min":19,"x_max":506,"o":"m 407 888 q 475 865 447 888 q 506 799 503 843 q 480 738 506 763 q 415 710 454 713 q 369 689 386 708 q 353 643 353 669 l 353 542 q 413 513 389 539 q 438 450 438 488 q 414 388 438 413 q 353 360 390 363 l 353 46 q 340 -32 353 6 q 303 -99 326 -69 q 247 -153 279 -129 q 172 -189 214 -176 q 121 -197 147 -197 q 73 -185 94 -196 q 36 -156 51 -175 q 19 -106 21 -136 q 45 -44 19 -69 q 107 -17 71 -18 q 153 3 135 -17 q 172 49 172 24 l 172 360 q 113 385 135 360 q 88 450 90 410 q 111 512 88 486 q 172 542 135 538 l 172 644 q 190 735 172 692 q 240 813 208 779 q 315 867 272 847 q 407 888 358 888 z "},"…":{"ha":735,"x_min":47,"x_max":689,"o":"m 236 94 q 208 28 236 56 q 140 0 181 0 q 74 28 101 0 q 47 94 47 56 q 74 161 47 133 q 140 189 101 189 q 208 161 181 189 q 236 94 236 133 m 463 94 q 435 28 463 56 q 367 0 407 0 q 301 28 328 0 q 274 94 274 56 q 301 161 274 133 q 367 189 328 189 q 435 161 407 189 q 463 94 463 133 m 689 94 q 661 28 689 56 q 593 0 633 0 q 527 28 554 0 q 500 94 500 56 q 527 161 500 133 q 593 189 554 189 q 661 161 633 189 q 689 94 689 133 z "},"^":{"ha":793,"x_min":24,"x_max":769,"o":"m 303 835 q 344 879 319 863 q 396 896 368 896 q 447 878 422 896 q 492 835 472 860 l 756 428 q 753 356 769 392 q 701 306 738 321 q 630 308 665 292 q 569 361 594 324 l 396 613 l 219 361 q 162 308 197 324 q 90 306 126 292 q 39 356 54 321 q 38 428 24 392 l 303 835 z "},"±":{"ha":601,"x_min":31,"x_max":571,"o":"m 475 633 q 543 606 515 633 q 571 539 571 579 q 543 472 571 500 q 475 444 515 444 l 394 444 l 394 364 q 367 296 394 324 q 300 268 339 268 q 233 296 260 268 q 206 364 206 324 l 206 444 l 124 444 q 57 472 83 444 q 31 539 31 500 q 57 606 31 579 q 124 633 83 633 l 206 633 l 206 715 q 233 783 206 756 q 300 810 260 810 q 367 783 339 810 q 394 715 394 756 l 394 633 l 475 633 m 571 94 q 544 28 571 56 q 478 0 517 0 l 124 0 q 57 28 83 0 q 31 94 31 56 q 57 162 31 135 q 124 189 83 189 l 478 189 q 544 162 517 189 q 571 94 571 135 z "},"þ":{"ha":733,"x_min":51,"x_max":725,"o":"m 149 889 q 218 860 189 889 q 247 790 247 831 l 247 -87 q 218 -157 247 -128 q 149 -186 189 -186 q 80 -157 108 -186 q 51 -87 51 -128 l 51 790 q 80 860 51 831 q 149 889 108 889 m 142 886 q 176 880 160 888 q 206 860 193 872 q 226 830 219 847 q 233 794 233 813 l 233 635 q 334 667 282 660 q 438 667 386 675 q 538 637 489 660 q 628 575 586 614 q 701 467 676 525 q 725 336 725 410 q 698 206 725 267 q 625 99 671 144 q 518 26 579 53 q 389 0 457 0 q 261 27 322 0 q 153 100 200 54 q 79 207 107 146 q 51 336 51 268 l 51 801 q 60 834 51 818 q 81 862 68 850 q 109 881 93 874 q 142 886 125 888 m 233 336 q 246 276 233 304 q 280 226 258 247 q 329 193 301 206 q 389 181 357 181 q 448 193 419 181 q 498 226 476 206 q 532 276 519 247 q 544 336 544 304 q 532 397 544 368 q 498 446 519 425 q 448 479 476 467 q 389 492 419 492 q 329 478 357 492 q 280 444 301 465 q 246 394 258 422 q 233 336 233 365 z "},"¶":{"ha":289,"x_min":50,"x_max":236,"o":"m 144 886 q 209 858 182 886 q 236 793 236 831 l 236 93 q 209 27 236 54 q 144 0 182 0 q 77 27 104 0 q 50 93 50 54 l 50 793 q 77 858 50 831 q 144 886 104 886 z "},"›":{"ha":482,"x_min":46,"x_max":471,"o":"m 244 329 l 74 514 q 47 581 46 542 q 74 646 47 619 q 140 674 101 674 q 207 647 179 675 l 443 397 q 470 328 469 367 q 443 263 471 290 l 207 26 q 142 0 181 0 q 75 28 104 0 q 47 94 47 56 q 74 158 47 132 l 244 329 z "},"‹":{"ha":481,"x_min":11,"x_max":436,"o":"m 408 158 q 435 94 435 132 q 407 28 435 56 q 340 0 378 0 q 275 26 301 0 l 39 263 q 12 328 11 290 q 39 397 13 367 l 275 647 q 342 674 303 675 q 408 646 381 674 q 435 581 435 619 q 408 514 436 542 l 238 329 l 408 158 z "},"¬":{"ha":713,"x_min":11,"x_max":663,"o":"m 568 163 q 501 190 529 163 q 474 256 474 217 l 474 324 l 104 324 q 38 351 64 324 q 11 418 11 379 q 38 485 11 458 q 104 513 64 513 l 569 513 q 635 485 608 513 q 663 422 661 460 l 663 256 q 635 190 663 217 q 568 163 608 163 z "},"©":{"ha":1029,"x_min":33,"x_max":994,"o":"m 467 463 q 445 410 444 440 q 467 358 446 381 q 519 337 489 338 q 571 358 549 336 l 576 364 q 637 384 601 385 q 697 358 672 383 q 723 303 721 335 q 707 244 725 271 l 696 233 q 615 181 661 199 q 521 163 569 163 q 426 180 472 163 q 342 233 379 197 q 287 317 306 271 q 268 410 268 363 q 287 505 268 458 q 342 588 306 551 q 449 650 389 633 q 567 656 508 667 q 635 631 603 647 q 694 586 667 614 q 707 569 703 579 q 721 515 724 544 q 696 461 718 485 q 633 435 672 438 l 629 431 l 624 435 q 581 454 600 436 q 571 463 576 458 q 518 485 547 486 q 467 463 489 485 m 519 888 q 704 850 618 888 q 855 748 790 813 q 957 597 919 683 q 994 411 994 510 q 979 288 994 349 q 894 119 953 193 q 757 -1 836 44 q 584 -61 678 -47 q 394 -49 490 -75 q 226 35 300 -24 q 106 173 151 94 q 47 345 60 251 q 58 535 33 439 q 142 703 83 629 q 280 822 201 776 q 451 882 358 868 q 519 886 485 886 l 519 888 m 596 701 q 549 710 568 708 q 519 711 531 711 q 442 700 479 711 q 308 625 367 681 q 229 489 250 569 q 222 369 213 428 q 259 261 231 311 q 334 174 288 211 q 440 121 381 138 q 560 114 501 106 q 668 151 618 122 q 755 227 718 181 q 808 333 792 274 q 818 422 821 381 q 817 447 815 435 q 779 560 810 508 q 671 669 740 628 q 611 697 642 686 l 596 701 z "},"®":{"ha":1029,"x_min":33,"x_max":994,"o":"m 519 888 q 704 850 618 888 q 855 748 790 813 q 957 597 919 683 q 994 411 994 510 q 979 288 994 349 q 894 119 953 193 q 757 -1 836 44 q 584 -61 678 -47 q 394 -49 490 -75 q 226 35 300 -24 q 106 173 151 94 q 47 345 60 251 q 58 535 33 439 q 142 703 83 629 q 280 822 201 776 q 422 878 358 868 q 519 888 485 888 m 596 701 q 549 710 568 708 q 519 711 531 711 q 442 700 479 711 q 308 625 367 681 q 229 489 250 569 q 222 369 213 428 q 259 261 231 311 q 334 174 288 211 q 440 121 381 138 q 560 114 501 106 q 668 151 618 122 q 755 227 718 181 q 808 333 792 274 q 818 422 821 381 l 817 447 q 779 560 810 508 q 671 669 740 628 q 611 697 642 686 l 596 701 m 532 401 q 553 453 532 432 q 606 475 574 475 q 670 501 643 475 q 697 565 697 528 q 670 630 697 603 q 606 657 643 657 q 506 637 553 657 q 425 582 460 617 q 371 501 390 547 q 351 401 351 454 l 351 249 q 378 185 351 211 q 442 158 404 158 q 506 185 479 158 q 532 249 532 211 l 532 401 z "},"­":{"ha":632,"x_min":46,"x_max":586,"o":"m 586 418 q 559 351 586 379 q 493 324 532 324 l 139 324 q 72 351 99 324 q 46 418 46 379 q 72 485 46 458 q 139 513 99 513 l 493 513 q 559 485 532 513 q 586 418 586 458 z "},"™":{"ha":1163,"x_min":39,"x_max":1115,"o":"m 353 888 q 420 860 393 888 q 447 793 447 832 q 420 726 447 753 q 353 700 393 700 l 336 700 l 336 511 q 310 444 336 471 q 243 417 283 417 q 176 444 203 417 q 150 511 150 471 l 150 700 l 132 700 q 66 726 93 700 q 39 793 39 753 q 66 860 39 832 q 132 888 93 888 l 353 888 m 904 879 q 963 871 919 879 q 1043 831 1006 863 q 1098 756 1081 799 q 1115 653 1115 713 l 1115 503 q 1088 435 1115 463 q 1022 408 1060 408 q 955 435 982 408 q 928 503 928 463 l 928 628 q 922 667 928 654 q 904 681 915 681 q 886 667 893 681 q 879 628 879 654 l 879 503 q 852 435 879 463 q 786 408 825 408 q 720 435 747 408 q 693 503 693 463 l 693 628 q 687 667 693 654 q 668 681 681 681 q 651 667 657 681 q 644 628 644 654 l 644 503 q 617 435 644 463 q 550 408 590 408 q 484 435 511 408 q 457 503 457 463 l 457 653 q 472 751 457 707 q 524 828 486 796 q 600 869 563 860 q 668 879 638 879 q 719 874 693 879 q 786 849 744 868 q 852 873 826 867 q 904 879 878 879 z "},"ª":{"ha":615,"x_min":35,"x_max":572,"o":"m 310 888 q 494 806 418 888 q 572 622 569 726 l 572 433 q 545 369 572 396 q 482 343 518 343 q 418 369 444 343 q 310 346 368 346 q 112 423 189 350 q 35 629 35 496 q 120 813 39 738 q 310 888 201 888 m 306 707 q 242 682 269 707 q 214 621 215 657 q 240 552 214 576 q 306 526 265 528 q 367 553 342 526 q 393 617 393 581 q 367 680 393 653 q 306 707 342 707 z "},"º":{"ha":576,"x_min":42,"x_max":535,"o":"m 294 888 q 464 813 393 888 q 535 639 535 738 q 464 465 535 540 q 294 390 393 390 q 113 462 183 394 q 42 650 42 529 q 120 818 46 749 q 294 888 194 888 m 294 713 q 242 692 265 713 q 219 642 219 671 q 240 585 219 604 q 294 564 261 565 q 346 586 325 564 q 367 638 367 608 q 346 690 367 668 q 294 713 325 713 m 535 247 q 508 181 535 208 q 442 153 481 153 l 135 153 q 68 181 94 153 q 42 247 42 208 q 68 315 42 288 q 135 342 94 342 l 442 342 q 508 315 481 342 q 535 247 535 288 z "},"¤":{"ha":778,"x_min":46,"x_max":733,"o":"m 710 149 q 725 78 732 117 q 686 17 718 39 q 616 1 654 -7 q 554 40 578 8 l 493 128 q 390 113 444 113 q 285 128 335 113 l 224 40 q 163 1 201 8 q 93 17 125 -7 q 67 44 76 28 q 53 78 57 60 q 54 114 50 96 q 69 149 58 132 l 128 233 q 81 314 99 269 q 54 447 54 375 q 79 576 54 517 q 126 656 97 619 l 69 739 q 53 809 46 771 q 93 871 61 847 q 163 886 125 893 q 224 847 201 879 l 281 764 q 390 785 332 782 q 499 767 446 785 l 554 847 q 616 886 578 879 q 686 871 654 893 q 726 809 718 847 q 710 739 733 771 l 653 656 q 699 579 681 621 q 726 447 726 518 q 700 317 726 378 q 650 235 679 272 l 710 149 m 390 603 q 331 591 358 603 q 281 558 303 579 q 247 509 260 538 q 235 447 235 481 q 247 387 235 415 q 281 337 260 358 q 331 303 303 315 q 390 290 358 290 q 451 303 422 290 q 500 337 479 315 q 533 387 521 358 q 546 447 546 415 q 500 556 543 511 q 390 603 457 600 z "},"O":{"ha":954,"x_min":35,"x_max":919,"o":"m 218 444 q 238 343 218 390 q 294 260 258 296 q 376 205 329 225 q 478 185 424 185 q 578 205 532 185 q 660 260 625 225 q 716 343 696 296 q 736 444 736 390 q 716 545 736 499 q 660 627 696 592 q 578 683 625 663 q 478 703 532 703 q 376 683 424 703 q 294 627 329 663 q 238 545 258 592 q 218 444 218 499 m 35 444 q 69 617 35 536 q 164 758 104 697 q 305 853 224 818 q 478 888 386 888 q 650 853 569 888 q 790 758 731 818 q 885 617 850 697 q 919 444 919 536 q 885 272 919 353 q 790 131 850 192 q 650 36 731 71 q 478 1 569 1 q 305 36 386 1 q 164 131 224 71 q 69 272 104 192 q 35 444 35 353 z "},"P":{"ha":735,"x_min":46,"x_max":718,"o":"m 382 890 q 511 864 450 890 q 618 792 572 838 q 691 685 664 746 q 718 553 718 624 q 692 423 718 483 q 620 317 665 363 q 514 244 575 271 q 382 218 453 218 q 251 243 313 218 l 232 251 l 232 93 q 205 27 232 54 q 140 0 178 0 q 73 27 100 0 q 46 93 46 54 l 46 553 q 72 683 46 622 q 142 788 97 743 q 249 860 188 833 q 382 890 311 888 m 382 708 q 322 697 350 708 q 273 664 294 685 q 239 615 251 643 q 226 553 226 586 q 239 492 226 521 q 273 442 251 464 q 322 408 294 421 q 382 396 350 396 q 442 408 414 396 q 492 442 471 421 q 525 492 513 464 q 538 553 538 521 q 492 661 535 617 q 382 708 449 706 z "},"Q":{"ha":988,"x_min":33,"x_max":951,"o":"m 33 444 q 68 617 33 536 q 163 758 103 697 q 303 853 222 818 q 476 888 385 888 q 649 853 568 888 q 789 758 729 818 q 883 617 849 697 q 918 444 918 536 q 887 281 918 357 q 803 147 856 206 q 822 150 813 146 q 891 149 857 161 q 938 100 925 138 q 935 26 951 61 q 874 -26 919 -10 q 787 -40 828 -42 q 704 -15 746 -37 q 642 33 669 4 q 476 1 563 1 q 303 36 385 1 q 163 131 222 71 q 68 272 103 192 q 33 444 33 353 m 321 276 q 429 392 356 361 q 532 407 482 411 q 623 386 582 403 q 692 335 664 369 q 703 319 697 328 q 735 444 735 375 q 715 545 735 499 q 659 627 694 592 q 577 683 624 663 q 476 703 531 703 q 375 683 422 703 q 292 627 328 663 q 237 545 257 592 q 217 444 217 499 q 242 330 217 382 q 311 242 267 278 q 321 276 315 258 m 476 185 q 564 200 522 185 q 524 224 542 215 q 468 218 496 233 q 436 188 446 206 q 456 185 447 185 q 476 185 465 185 z "},"G":{"ha":893,"x_min":33,"x_max":856,"o":"m 33 444 q 68 617 33 536 q 163 758 103 697 q 303 853 222 818 q 476 888 385 888 q 669 842 581 888 q 819 722 758 797 q 835 676 835 704 q 806 609 835 638 q 738 581 776 581 q 682 601 701 581 q 592 675 646 647 q 476 703 539 703 q 375 683 422 703 q 292 627 328 663 q 237 545 257 592 q 217 444 217 499 q 237 343 217 390 q 292 260 257 296 q 375 205 328 225 q 476 185 422 185 q 574 203 529 185 q 656 256 619 222 q 671 317 672 276 q 603 344 631 317 q 576 411 576 371 q 603 475 576 449 q 671 501 631 501 l 763 501 q 829 475 803 501 q 856 411 856 449 l 856 317 q 837 199 856 238 q 797 139 818 160 q 653 38 736 74 q 476 1 571 1 q 303 36 385 1 q 163 131 222 71 q 68 272 103 192 q 33 444 33 353 z "},"‰":{"ha":1685,"x_min":32,"x_max":1667,"o":"m 728 885 q 783 839 765 874 q 790 768 801 804 l 568 67 q 522 13 557 31 q 450 6 486 -6 q 396 51 414 17 q 389 124 378 85 l 611 824 q 656 879 622 861 q 728 885 690 897 m 278 888 q 443 815 375 888 q 511 644 511 743 q 443 478 511 550 q 278 406 375 406 q 101 474 169 408 q 32 658 32 539 q 108 821 36 754 q 278 888 181 888 m 275 718 q 223 697 244 718 q 200 649 201 676 q 222 593 200 613 q 275 572 243 574 q 324 594 303 572 q 346 644 346 617 q 324 697 346 675 q 275 718 303 718 m 919 486 q 1085 414 1017 486 q 1153 243 1153 342 q 1085 76 1153 149 q 919 4 1017 4 q 742 72 811 7 q 674 257 674 138 q 750 419 678 353 q 919 486 822 486 m 917 317 q 865 296 886 317 q 842 247 843 275 q 863 192 842 211 q 917 171 885 172 q 966 193 944 171 q 988 243 988 215 q 966 295 988 274 q 917 317 944 317 m 1433 486 q 1599 414 1531 486 q 1667 243 1667 342 q 1599 76 1667 149 q 1433 4 1531 4 q 1256 72 1325 7 q 1188 257 1188 138 q 1264 419 1192 353 q 1433 486 1336 486 m 1431 317 q 1378 296 1400 317 q 1356 247 1357 275 q 1377 192 1356 211 q 1431 171 1399 172 q 1480 193 1458 171 q 1501 243 1501 215 q 1480 295 1501 274 q 1431 317 1458 317 z "},"b":{"ha":735,"x_min":44,"x_max":718,"o":"m 135 886 q 169 880 153 888 q 199 860 186 872 q 219 830 213 847 q 226 794 226 813 l 226 635 q 327 667 275 660 q 431 667 379 675 q 531 637 482 660 q 621 575 579 614 q 694 467 669 525 q 718 336 718 410 q 691 206 718 267 q 618 99 664 144 q 511 26 572 53 q 382 0 450 0 q 254 27 315 0 q 147 100 193 54 q 72 207 100 146 q 44 336 44 268 l 44 801 q 53 834 44 818 q 74 862 61 850 q 102 881 86 874 q 135 886 118 888 m 226 336 q 239 276 226 304 q 273 226 251 247 q 322 193 294 206 q 382 181 350 181 q 441 193 413 181 q 491 226 469 206 q 525 276 513 247 q 538 336 538 304 q 525 397 538 368 q 491 446 513 425 q 441 479 469 467 q 382 492 413 492 q 322 478 350 492 q 273 444 294 465 q 239 394 251 422 q 226 336 226 365 z "},"Ò":{"ha":939,"x_min":35,"x_max":919,"o":"m 218 444 q 238 343 218 390 q 294 260 258 296 q 376 205 329 225 q 478 185 424 185 q 578 205 532 185 q 660 260 625 225 q 716 343 696 296 q 736 444 736 390 q 716 545 736 499 q 660 627 696 592 q 578 683 625 663 q 478 703 532 703 q 376 683 424 703 q 294 627 329 663 q 238 545 258 592 q 218 444 218 499 m 35 444 q 69 617 35 536 q 164 758 104 697 q 305 853 224 818 q 478 888 386 888 q 650 853 569 888 q 790 758 731 818 q 885 617 850 697 q 919 444 919 536 q 885 272 919 353 q 790 131 850 192 q 650 36 731 71 q 478 1 569 1 q 305 36 386 1 q 164 131 224 71 q 69 272 104 192 q 35 444 35 353 m 235 1142 q 278 1198 244 1179 q 347 1207 313 1217 l 515 1163 q 573 1119 554 1151 q 582 1049 592 1086 q 538 990 572 1010 q 467 979 504 969 l 300 1025 q 244 1068 263 1035 q 235 1142 225 1101 z "},"Ó":{"ha":939,"x_min":35,"x_max":919,"o":"m 218 444 q 238 343 218 390 q 294 260 258 296 q 376 205 329 225 q 478 185 424 185 q 578 205 532 185 q 660 260 625 225 q 716 343 696 296 q 736 444 736 390 q 716 545 736 499 q 660 627 696 592 q 578 683 625 663 q 478 703 532 703 q 376 683 424 703 q 294 627 329 663 q 238 545 258 592 q 218 444 218 499 m 35 444 q 69 617 35 536 q 164 758 104 697 q 305 853 224 818 q 478 888 386 888 q 650 853 569 888 q 790 758 731 818 q 885 617 850 697 q 919 444 919 536 q 885 272 919 353 q 790 131 850 192 q 650 36 731 71 q 478 1 569 1 q 305 36 386 1 q 164 131 224 71 q 69 272 104 192 q 35 444 35 353 m 714 1142 q 705 1068 724 1101 q 649 1025 686 1035 l 482 979 q 410 990 444 969 q 367 1049 376 1010 q 376 1119 357 1086 q 433 1163 394 1151 l 601 1207 q 670 1198 636 1217 q 714 1142 704 1179 z "},"Ô":{"ha":939,"x_min":35,"x_max":919,"o":"m 218 444 q 238 343 218 390 q 294 260 258 296 q 376 205 329 225 q 478 185 424 185 q 578 205 532 185 q 660 260 625 225 q 716 343 696 296 q 736 444 736 390 q 716 545 736 499 q 660 627 696 592 q 578 683 625 663 q 478 703 532 703 q 376 683 424 703 q 294 627 329 663 q 238 545 258 592 q 218 444 218 499 m 35 444 q 69 617 35 536 q 164 758 104 697 q 305 853 224 818 q 478 888 386 888 q 650 853 569 888 q 790 758 731 818 q 885 617 850 697 q 919 444 919 536 q 885 272 919 353 q 790 131 850 192 q 650 36 731 71 q 478 1 569 1 q 305 36 386 1 q 164 131 224 71 q 69 272 104 192 q 35 444 35 353 m 356 997 q 291 971 329 971 q 225 999 253 971 q 204 1066 197 1028 q 238 1131 211 1104 l 404 1297 q 470 1324 432 1325 q 539 1297 508 1324 l 719 1131 q 753 1064 747 1103 q 732 997 760 1025 q 667 970 706 971 q 600 997 628 969 l 471 1113 l 356 997 z "},"Õ":{"ha":939,"x_min":35,"x_max":919,"o":"m 218 444 q 238 343 218 390 q 294 260 258 296 q 376 205 329 225 q 478 185 424 185 q 578 205 532 185 q 660 260 625 225 q 716 343 696 296 q 736 444 736 390 q 716 545 736 499 q 660 627 696 592 q 578 683 625 663 q 478 703 532 703 q 376 683 424 703 q 294 627 329 663 q 238 545 258 592 q 218 444 218 499 m 35 444 q 69 617 35 536 q 164 758 104 697 q 305 853 224 818 q 478 888 386 888 q 650 853 569 888 q 790 758 731 818 q 885 617 850 697 q 919 444 919 536 q 885 272 919 353 q 790 131 850 192 q 650 36 731 71 q 478 1 569 1 q 305 36 386 1 q 164 131 224 71 q 69 272 104 192 q 35 444 35 353 m 483 1204 l 551 1167 q 586 1155 574 1151 q 617 1181 599 1158 q 667 1225 635 1211 q 736 1218 700 1239 q 783 1161 771 1199 q 769 1082 794 1124 q 712 1013 744 1039 q 635 978 679 988 q 539 978 590 968 q 461 1006 488 989 l 392 1043 q 354 1051 371 1057 q 328 1028 338 1044 q 276 985 308 999 q 207 992 243 971 q 161 1049 172 1011 q 174 1128 150 1086 q 231 1196 199 1171 q 308 1231 264 1221 q 402 1232 353 1242 q 483 1204 451 1222 z "},"Ö":{"ha":939,"x_min":35,"x_max":919,"o":"m 218 444 q 238 343 218 390 q 294 260 258 296 q 376 205 329 225 q 478 185 424 185 q 578 205 532 185 q 660 260 625 225 q 716 343 696 296 q 736 444 736 390 q 716 545 736 499 q 660 627 696 592 q 578 683 625 663 q 478 703 532 703 q 376 683 424 703 q 294 627 329 663 q 238 545 258 592 q 218 444 218 499 m 35 444 q 69 617 35 536 q 164 758 104 697 q 305 853 224 818 q 478 888 386 888 q 650 853 569 888 q 790 758 731 818 q 885 617 850 697 q 919 444 919 536 q 885 272 919 353 q 790 131 850 192 q 650 36 731 71 q 478 1 569 1 q 305 36 386 1 q 164 131 224 71 q 69 272 104 192 q 35 444 35 353 m 439 1096 q 411 1029 439 1057 q 343 1001 383 1001 q 277 1029 304 1001 q 250 1096 250 1057 q 277 1163 250 1135 q 343 1190 304 1190 q 411 1163 383 1190 q 439 1096 439 1135 m 707 1096 q 679 1029 707 1057 q 611 1001 651 1001 q 545 1029 572 1001 q 518 1096 518 1057 q 545 1163 518 1135 q 611 1190 572 1190 q 679 1163 651 1190 q 707 1096 707 1135 z "},"à":{"ha":753,"x_min":36,"x_max":710,"o":"m 413 671 q 530 635 475 664 q 624 560 585 606 q 687 458 664 515 q 710 336 710 400 l 710 90 q 682 26 710 53 q 619 0 654 0 q 542 44 571 0 q 529 38 535 42 q 518 32 524 35 q 450 8 485 17 q 374 0 414 0 q 188 56 269 0 q 65 201 106 113 q 44 267 51 233 q 36 336 36 300 q 44 406 36 372 q 65 471 51 439 q 188 617 106 561 q 374 672 269 672 q 394 672 385 672 q 413 671 403 672 m 372 181 q 433 192 404 181 q 482 225 461 204 q 515 274 503 246 q 528 336 528 303 q 515 395 528 367 q 481 445 503 424 q 431 479 460 467 q 372 492 403 492 q 314 479 342 492 q 265 445 286 467 q 231 395 243 424 q 218 336 218 367 q 231 276 218 304 q 266 226 244 247 q 315 193 288 206 q 372 181 343 181 m 168 913 q 212 969 178 950 q 281 978 246 988 l 449 933 q 506 890 488 922 q 515 819 525 857 q 472 760 506 781 q 400 750 438 740 l 233 796 q 177 839 196 806 q 168 913 158 872 z "},"á":{"ha":753,"x_min":36,"x_max":710,"o":"m 413 671 q 530 635 475 664 q 624 560 585 606 q 687 458 664 515 q 710 336 710 400 l 710 90 q 682 26 710 53 q 619 0 654 0 q 542 44 571 0 q 529 38 535 42 q 518 32 524 35 q 450 8 485 17 q 374 0 414 0 q 188 56 269 0 q 65 201 106 113 q 44 267 51 233 q 36 336 36 300 q 44 406 36 372 q 65 471 51 439 q 188 617 106 561 q 374 672 269 672 q 394 672 385 672 q 413 671 403 672 m 372 181 q 433 192 404 181 q 482 225 461 204 q 515 274 503 246 q 528 336 528 303 q 515 395 528 367 q 481 445 503 424 q 431 479 460 467 q 372 492 403 492 q 314 479 342 492 q 265 445 286 467 q 231 395 243 424 q 218 336 218 367 q 231 276 218 304 q 266 226 244 247 q 315 193 288 206 q 372 181 343 181 m 571 913 q 562 839 581 872 q 506 796 543 806 l 339 750 q 267 760 301 740 q 224 819 233 781 q 233 890 214 857 q 290 933 251 922 l 458 978 q 527 969 493 988 q 571 913 561 950 z "},"â":{"ha":753,"x_min":36,"x_max":710,"o":"m 413 671 q 530 635 475 664 q 624 560 585 606 q 687 458 664 515 q 710 336 710 400 l 710 90 q 682 26 710 53 q 619 0 654 0 q 542 44 571 0 q 529 38 535 42 q 518 32 524 35 q 450 8 485 17 q 374 0 414 0 q 188 56 269 0 q 65 201 106 113 q 44 267 51 233 q 36 336 36 300 q 44 406 36 372 q 65 471 51 439 q 188 617 106 561 q 374 672 269 672 q 394 672 385 672 q 413 671 403 672 m 372 181 q 433 192 404 181 q 482 225 461 204 q 515 274 503 246 q 528 336 528 303 q 515 395 528 367 q 481 445 503 424 q 431 479 460 467 q 372 492 403 492 q 314 479 342 492 q 265 445 286 467 q 231 395 243 424 q 218 336 218 367 q 231 276 218 304 q 266 226 244 247 q 315 193 288 206 q 372 181 343 181 m 256 743 q 191 717 229 717 q 125 744 153 717 q 104 812 97 774 q 138 876 111 850 l 304 1043 q 370 1070 332 1071 q 439 1043 408 1069 l 619 876 q 653 810 647 849 q 632 743 660 771 q 567 716 606 717 q 500 743 528 715 l 371 858 l 256 743 z "},"ã":{"ha":753,"x_min":36,"x_max":710,"o":"m 413 671 q 530 635 475 664 q 624 560 585 606 q 687 458 664 515 q 710 336 710 400 l 710 90 q 682 26 710 53 q 619 0 654 0 q 542 44 571 0 q 529 38 535 42 q 518 32 524 35 q 450 8 485 17 q 374 0 414 0 q 188 56 269 0 q 65 201 106 113 q 44 267 51 233 q 36 336 36 300 q 44 406 36 372 q 65 471 51 439 q 188 617 106 561 q 374 672 269 672 q 394 672 385 672 q 413 671 403 672 m 372 181 q 433 192 404 181 q 482 225 461 204 q 515 274 503 246 q 528 336 528 303 q 515 395 528 367 q 481 445 503 424 q 431 479 460 467 q 372 492 403 492 q 314 479 342 492 q 265 445 286 467 q 231 395 243 424 q 218 336 218 367 q 231 276 218 304 q 266 226 244 247 q 315 193 288 206 q 372 181 343 181 m 388 978 l 456 940 q 490 928 478 925 q 521 954 503 932 q 572 999 539 985 q 640 992 604 1013 q 687 935 675 972 q 674 856 699 897 q 616 787 649 813 q 539 751 583 761 q 443 752 494 742 q 365 779 392 763 l 296 817 q 258 824 275 831 q 232 801 242 818 q 180 758 213 772 q 111 765 147 744 q 65 822 76 785 q 78 901 54 860 q 135 969 103 944 q 213 1005 168 994 q 306 1006 257 1015 q 388 978 356 996 z "},"æ":{"ha":1489,"x_min":21,"x_max":1185,"o":"m 397 671 q 515 635 460 664 q 609 560 569 606 q 672 458 649 515 q 694 336 694 400 l 694 90 q 667 26 694 53 q 604 0 639 0 q 526 44 556 0 q 514 38 519 42 q 503 32 508 35 q 435 8 469 17 q 358 0 399 0 q 172 56 254 0 q 50 201 90 113 q 28 267 36 233 q 21 336 21 300 q 28 406 21 372 q 50 471 36 439 q 172 617 90 561 q 358 672 254 672 q 378 672 369 672 q 397 671 388 672 m 357 181 q 417 192 389 181 q 467 225 446 204 q 500 274 488 246 q 513 336 513 303 q 500 395 513 367 q 466 445 488 424 q 416 479 444 467 q 357 492 388 492 q 299 479 326 492 q 249 445 271 467 q 215 395 228 424 q 203 336 203 367 q 216 276 203 304 q 251 226 229 247 q 300 193 272 206 q 357 181 328 181 m 847 672 q 975 644 914 672 q 1083 570 1036 617 q 1157 463 1129 524 q 1185 336 1185 403 q 1158 279 1185 300 q 1090 260 1131 258 l 721 260 q 847 181 767 181 q 885 185 869 181 q 912 194 900 189 q 935 204 924 200 q 963 208 947 208 q 1013 192 992 207 q 1045 153 1035 176 q 1052 104 1056 131 q 1028 56 1049 78 q 944 13 990 25 q 847 0 899 1 q 719 24 781 -3 q 612 98 658 51 q 538 207 565 144 q 511 336 511 269 q 538 463 511 401 q 611 570 565 524 q 718 644 657 617 q 847 672 779 672 m 974 414 q 918 474 950 457 q 847 492 886 492 q 776 474 807 492 q 721 414 744 457 l 974 414 z "},"ä":{"ha":753,"x_min":36,"x_max":710,"o":"m 413 671 q 530 635 475 664 q 624 560 585 606 q 687 458 664 515 q 710 336 710 400 l 710 90 q 682 26 710 53 q 619 0 654 0 q 542 44 571 0 q 529 38 535 42 q 518 32 524 35 q 450 8 485 17 q 374 0 414 0 q 188 56 269 0 q 65 201 106 113 q 44 267 51 233 q 36 336 36 300 q 44 406 36 372 q 65 471 51 439 q 188 617 106 561 q 374 672 269 672 q 394 672 385 672 q 413 671 403 672 m 372 181 q 433 192 404 181 q 482 225 461 204 q 515 274 503 246 q 528 336 528 303 q 515 395 528 367 q 481 445 503 424 q 431 479 460 467 q 372 492 403 492 q 314 479 342 492 q 265 445 286 467 q 231 395 243 424 q 218 336 218 367 q 231 276 218 304 q 266 226 244 247 q 315 193 288 206 q 372 181 343 181 m 333 874 q 306 807 333 835 q 238 779 278 779 q 172 807 199 779 q 144 874 144 835 q 172 940 144 913 q 238 968 199 968 q 306 940 278 968 q 333 874 333 913 m 601 874 q 574 807 601 835 q 506 779 546 779 q 440 807 467 779 q 413 874 413 835 q 440 940 413 913 q 506 968 467 968 q 574 940 546 968 q 601 874 601 913 z "},"Ü":{"ha":765,"x_min":46,"x_max":719,"o":"m 383 4 q 250 31 311 4 q 144 103 189 57 q 73 210 99 149 q 46 340 47 271 l 46 801 q 74 863 46 838 q 138 888 101 888 q 201 860 174 888 q 229 797 229 833 l 229 333 q 242 275 229 303 q 275 228 254 247 q 324 197 296 208 q 382 185 351 185 q 444 197 415 185 q 494 231 472 210 q 527 280 515 251 q 539 340 539 308 l 539 801 q 566 863 539 839 q 631 888 593 888 q 694 860 668 886 q 719 797 719 833 l 719 329 q 692 200 719 260 q 618 97 664 140 q 511 28 572 53 q 383 4 450 4 m 342 1092 q 314 1025 342 1053 q 246 997 286 997 q 180 1025 207 997 q 153 1092 153 1053 q 180 1158 153 1131 q 246 1186 207 1186 q 314 1158 286 1186 q 342 1092 342 1131 m 610 1092 q 582 1025 610 1053 q 514 997 554 997 q 448 1025 475 997 q 421 1092 421 1053 q 448 1158 421 1131 q 514 1186 475 1186 q 582 1158 554 1186 q 610 1092 610 1131 z "},"Œ":{"ha":1638,"x_min":307,"x_max":1589,"o":"m 490 444 q 510 343 490 390 q 566 260 531 296 q 649 205 601 225 q 750 185 696 185 q 851 205 804 185 q 933 260 897 225 q 988 343 968 296 q 1008 444 1008 390 q 988 545 1008 499 q 933 627 968 592 q 851 683 897 663 q 750 703 804 703 q 649 683 696 703 q 566 627 601 663 q 510 545 531 592 q 490 444 490 499 m 307 444 q 342 617 307 536 q 436 758 376 697 q 577 853 496 818 q 750 888 658 888 q 922 853 842 888 q 1063 758 1003 818 q 1157 617 1122 697 q 1192 444 1192 536 q 1157 272 1192 353 q 1063 131 1122 192 q 922 36 1003 71 q 750 1 842 1 q 577 36 658 1 q 436 131 496 71 q 342 272 376 192 q 307 444 307 353 m 1496 188 q 1562 160 1535 188 q 1589 94 1589 132 q 1562 27 1589 54 q 1496 0 1535 0 l 1099 0 q 1034 27 1063 0 q 1006 94 1006 54 l 1006 793 q 1032 858 1006 829 q 1099 888 1058 888 l 1496 888 q 1562 860 1535 888 q 1589 793 1589 832 q 1562 726 1589 753 q 1496 700 1535 700 l 1190 700 l 1190 542 l 1403 542 q 1468 514 1440 542 q 1496 447 1496 486 q 1468 381 1496 408 q 1403 354 1440 354 l 1190 354 l 1190 188 l 1496 188 z "},"ˇ":{"ha":521,"x_min":26,"x_max":493,"o":"m 369 1249 q 420 1269 390 1269 q 471 1249 450 1269 q 493 1196 493 1225 q 472 1146 493 1167 l 318 992 q 267 970 296 969 q 214 992 238 971 l 49 1146 q 27 1197 26 1167 q 49 1249 28 1228 q 100 1270 69 1269 q 151 1249 131 1271 l 267 1146 l 369 1249 z "},"Ž":{"ha":775,"x_min":49,"x_max":726,"o":"m 633 188 q 700 160 674 188 q 726 94 726 132 q 700 27 726 54 q 633 0 674 0 l 144 0 q 96 15 117 1 q 64 49 75 28 q 53 94 53 69 q 67 144 53 119 l 68 146 l 449 700 l 142 700 q 76 726 104 700 q 49 793 49 753 q 76 860 49 832 q 142 888 104 888 l 631 888 q 678 872 657 886 q 712 837 700 858 q 724 790 724 815 q 708 739 724 764 l 325 188 l 633 188 m 418 1219 q 469 1240 439 1240 q 519 1219 499 1240 q 542 1167 542 1196 q 521 1117 542 1138 l 367 963 q 315 941 344 940 q 263 963 286 942 l 97 1117 q 76 1168 75 1138 q 97 1219 76 1199 q 149 1241 118 1240 q 200 1219 179 1242 l 315 1117 l 418 1219 z "},"Ť":{"ha":729,"x_min":22,"x_max":708,"o":"m 614 888 q 681 860 654 888 q 708 793 708 832 q 681 726 708 753 q 614 700 654 700 l 458 700 l 458 94 q 432 27 458 54 q 365 0 406 0 q 299 27 325 0 q 272 94 272 54 l 272 700 l 115 700 q 49 726 76 700 q 22 793 22 753 q 49 860 22 832 q 115 888 76 888 l 614 888 m 394 1222 q 445 1243 415 1243 q 496 1222 475 1243 q 518 1169 518 1199 q 497 1119 518 1140 l 343 965 q 292 944 321 943 q 239 965 263 944 l 74 1119 q 52 1171 51 1140 q 74 1222 53 1201 q 125 1244 94 1243 q 176 1222 156 1244 l 292 1119 l 394 1222 z "},"ž":{"ha":774,"x_min":47,"x_max":724,"o":"m 635 672 q 697 646 671 672 q 724 583 724 617 q 697 519 724 546 q 683 506 690 513 q 669 492 676 499 q 515 337 592 414 q 358 182 438 260 l 635 182 q 697 154 669 181 q 724 89 724 125 q 697 26 724 56 q 635 0 668 0 l 631 0 l 178 0 l 143 0 l 139 0 q 76 26 103 0 q 50 89 49 54 q 75 151 47 126 l 414 492 l 143 492 l 139 492 q 76 519 101 494 q 50 583 47 546 q 76 646 49 618 q 139 672 101 672 l 635 672 m 431 994 q 481 1015 451 1015 q 532 994 511 1015 q 554 942 554 971 q 533 892 554 913 l 379 738 q 328 716 357 715 q 275 738 299 717 l 110 892 q 88 943 88 913 q 110 994 89 974 q 161 1016 131 1015 q 213 994 192 1017 l 328 892 l 431 994 z "},"˛":{"ha":331,"x_min":21,"x_max":303,"o":"m 161 -292 q 107 -281 132 -292 q 63 -251 82 -269 q 32 -206 43 -232 q 21 -151 21 -181 q 28 -106 21 -128 q 49 -67 35 -85 q 94 -27 67 -43 q 154 -10 121 -11 l 154 101 q 167 128 154 114 q 201 142 181 142 q 234 128 221 142 q 247 101 247 114 l 247 -57 l 247 -61 q 233 -91 247 -79 q 201 -104 219 -103 l 156 -104 q 126 -120 138 -107 q 114 -151 114 -133 q 128 -186 114 -172 q 161 -200 142 -200 q 196 -186 182 -200 q 210 -151 210 -172 q 224 -119 210 -132 q 257 -106 238 -106 q 288 -117 275 -106 q 303 -146 301 -128 q 292 -200 303 -174 q 264 -247 282 -226 q 219 -280 246 -268 q 161 -292 193 -292 z "},"Ř":{"ha":711,"x_min":46,"x_max":675,"o":"m 593 160 q 613 128 607 146 q 619 93 619 111 q 613 58 619 75 q 593 26 607 40 q 527 0 565 0 q 461 26 489 0 l 233 254 l 233 94 q 206 27 233 54 q 139 0 178 0 q 74 27 101 0 q 46 94 46 54 l 46 572 q 72 692 47 635 q 139 793 96 750 q 239 862 182 836 q 363 888 296 888 q 481 863 424 888 q 581 795 538 838 q 649 695 624 753 q 675 572 675 638 q 621 394 675 472 q 476 276 567 315 l 593 160 m 363 700 q 312 690 335 700 q 271 663 289 681 q 243 622 253 646 q 233 572 233 599 q 244 524 233 547 q 272 482 254 500 q 313 453 289 464 q 363 443 336 443 q 452 480 414 443 q 490 572 490 517 q 480 622 490 599 q 452 663 469 646 q 411 690 435 681 q 363 700 388 700 m 465 1219 q 516 1240 486 1240 q 567 1219 546 1240 q 589 1167 589 1196 q 568 1117 589 1138 l 414 963 q 363 941 392 940 q 310 963 333 942 l 144 1117 q 123 1168 122 1138 q 144 1219 124 1199 q 196 1241 165 1240 q 247 1219 226 1242 l 363 1117 l 465 1219 z "},"Ň":{"ha":765,"x_min":46,"x_max":719,"o":"m 383 883 q 511 859 450 883 q 618 791 572 835 q 692 688 664 747 q 719 558 719 628 l 719 90 q 694 28 719 54 q 631 0 668 1 q 566 24 593 0 q 539 86 539 49 l 539 547 q 527 608 539 579 q 494 657 515 636 q 444 690 472 678 q 382 703 415 703 q 324 691 351 703 q 275 660 296 679 q 242 613 254 640 q 229 554 229 585 l 229 90 q 201 27 229 54 q 138 0 174 0 q 74 25 101 0 q 46 86 46 50 l 46 547 q 73 678 47 617 q 144 785 99 739 q 250 857 189 831 q 383 883 311 883 m 492 1219 q 542 1240 513 1240 q 593 1219 572 1240 q 615 1167 615 1196 q 594 1117 615 1138 l 440 963 q 389 941 418 940 q 336 963 360 942 l 171 1117 q 149 1168 149 1138 q 171 1219 150 1199 q 222 1241 192 1240 q 274 1219 253 1242 l 389 1117 l 492 1219 z "},"č":{"ha":667,"x_min":33,"x_max":631,"o":"m 371 672 q 607 575 510 672 q 628 513 631 549 q 601 453 626 476 q 538 428 576 429 q 474 453 499 426 q 371 492 431 492 q 310 478 339 492 q 260 444 282 465 q 226 394 239 422 q 214 336 214 367 q 226 276 214 304 q 261 226 239 247 q 311 192 283 204 q 371 181 339 179 q 474 218 432 181 q 538 246 499 246 q 601 218 576 246 q 621 192 614 207 q 628 160 628 176 q 624 127 629 143 q 607 99 618 111 q 500 25 558 50 q 371 0 442 0 q 240 27 301 0 q 133 100 179 54 q 60 207 88 146 q 33 336 33 268 q 60 464 33 403 q 134 571 88 525 q 242 644 181 617 q 371 672 303 672 m 457 996 q 508 1017 478 1017 q 558 996 538 1017 q 581 943 581 972 q 560 893 581 914 l 406 739 q 354 717 383 717 q 301 739 325 718 l 136 893 q 115 944 114 914 q 136 996 115 975 q 188 1017 157 1017 q 239 996 218 1018 l 354 893 l 457 996 z "},"Č":{"ha":871,"x_min":33,"x_max":836,"o":"m 33 444 q 68 617 33 536 q 163 758 103 697 q 303 853 222 818 q 476 888 385 888 q 669 842 581 888 q 819 722 758 797 q 835 675 836 697 q 806 610 835 638 q 738 581 776 582 q 682 601 699 582 q 592 675 646 647 q 476 703 539 703 q 376 683 424 703 q 294 627 329 663 q 238 545 258 592 q 217 447 217 499 q 237 345 217 393 q 292 262 257 297 q 375 206 328 226 q 476 186 422 186 q 592 214 539 186 q 682 288 646 242 q 739 307 703 307 q 807 279 779 307 q 835 218 835 251 q 819 167 835 186 q 669 47 758 92 q 476 1 581 1 q 303 36 385 1 q 163 131 222 71 q 68 272 103 192 q 33 444 33 353 m 558 1219 q 609 1240 579 1240 q 660 1219 639 1240 q 682 1167 682 1196 q 661 1117 682 1138 l 507 963 q 456 941 485 940 q 403 963 426 942 l 238 1117 q 216 1168 215 1138 q 238 1219 217 1199 q 289 1241 258 1240 q 340 1219 319 1242 l 456 1117 l 558 1219 z "},"ě":{"ha":736,"x_min":35,"x_max":708,"o":"m 371 672 q 499 644 438 672 q 606 570 560 617 q 681 463 653 524 q 708 336 708 403 q 681 279 708 300 q 614 260 654 258 l 244 260 q 371 181 290 181 q 408 185 393 181 q 435 194 424 189 q 459 204 447 200 q 486 208 471 208 q 537 192 515 207 q 569 153 558 176 q 576 104 579 131 q 551 56 572 78 q 468 13 514 25 q 371 0 422 1 q 243 24 304 -3 q 135 98 182 51 q 62 207 89 144 q 35 336 35 269 q 62 463 35 401 q 135 570 89 524 q 242 644 181 617 q 371 672 303 672 m 497 414 q 442 474 474 457 q 371 492 410 492 q 299 474 331 492 q 244 414 268 457 l 497 414 m 464 993 q 515 1014 485 1014 q 565 993 544 1014 q 588 940 588 969 q 567 890 588 911 l 413 736 q 361 715 390 714 q 308 736 332 715 l 143 890 q 122 942 121 911 q 143 993 122 972 q 194 1015 164 1014 q 246 993 225 1015 l 361 890 l 464 993 z "},"ř":{"ha":476,"x_min":7,"x_max":474,"o":"m 129 -1 q 67 23 92 -1 q 39 88 42 47 l 39 344 q 67 470 40 411 q 140 573 94 529 q 245 642 185 617 q 374 671 306 668 q 438 644 413 671 q 467 581 464 618 q 440 517 467 543 q 375 490 414 492 q 315 478 343 490 q 267 446 288 467 q 233 397 246 425 q 221 335 221 368 l 221 82 q 194 22 218 46 q 129 -1 169 -1 m 350 992 q 401 1013 371 1013 q 451 992 431 1013 q 474 939 474 968 q 453 889 474 910 l 299 735 q 247 713 276 713 q 194 735 218 714 l 29 889 q 8 940 7 910 q 29 992 8 971 q 81 1013 50 1013 q 132 992 111 1014 l 247 889 l 350 992 z "},"ň":{"ha":760,"x_min":43,"x_max":717,"o":"m 381 676 q 508 652 447 676 q 615 584 569 628 q 689 481 661 540 q 717 351 717 421 l 717 94 q 691 32 717 58 q 628 4 665 6 q 563 28 590 4 q 536 90 536 53 l 536 340 q 524 401 536 372 q 491 450 513 429 q 441 483 469 471 q 379 496 413 496 q 321 484 349 496 q 272 453 293 472 q 239 406 251 433 q 226 347 226 378 l 226 94 q 199 31 226 58 q 135 4 171 4 q 71 29 99 4 q 43 90 43 54 l 43 340 q 70 471 44 410 q 141 578 96 532 q 247 650 186 624 q 381 676 308 676 m 475 997 q 526 1018 496 1018 q 576 997 556 1018 q 599 944 599 974 q 578 894 599 915 l 424 740 q 372 719 401 718 q 319 740 343 719 l 154 894 q 133 946 132 915 q 154 997 133 976 q 206 1019 175 1018 q 257 997 236 1019 l 372 894 l 475 997 z "},"ą":{"ha":753,"x_min":36,"x_max":710,"o":"m 413 671 q 530 635 475 664 q 624 560 585 606 q 687 458 664 515 q 710 336 710 400 l 710 90 q 682 26 710 53 q 619 0 654 0 q 542 44 571 0 q 529 38 535 42 q 518 32 524 35 q 450 8 485 17 q 374 0 414 0 q 188 56 269 0 q 65 201 106 113 q 44 267 51 233 q 36 336 36 300 q 44 406 36 372 q 65 471 51 439 q 188 617 106 561 q 374 672 269 672 q 394 672 385 672 q 413 671 403 672 m 372 181 q 433 192 404 181 q 482 225 461 204 q 515 274 503 246 q 528 336 528 303 q 515 395 528 367 q 481 445 503 424 q 431 479 460 467 q 372 492 403 492 q 314 479 342 492 q 265 445 286 467 q 231 395 243 424 q 218 336 218 367 q 231 276 218 304 q 266 226 244 247 q 315 193 288 206 q 372 181 343 181 m 332 -318 q 278 -307 303 -318 q 233 -277 253 -296 q 203 -233 214 -258 q 192 -178 192 -207 q 199 -133 192 -154 q 219 -93 206 -111 q 265 -53 238 -69 q 325 -36 292 -37 l 325 75 q 338 101 325 88 q 372 115 351 115 q 405 101 392 115 q 418 75 418 88 l 418 -83 l 418 -87 q 404 -117 418 -106 q 372 -131 390 -129 l 326 -131 q 297 -147 308 -133 q 285 -178 285 -160 q 299 -212 285 -199 q 332 -226 313 -226 q 367 -212 353 -226 q 381 -178 381 -199 q 394 -145 381 -158 q 428 -132 408 -132 q 459 -143 446 -132 q 474 -172 472 -154 q 463 -226 474 -200 q 435 -274 453 -253 q 390 -306 417 -294 q 332 -318 364 -318 z "},"Ę":{"ha":683,"x_min":51,"x_max":635,"o":"m 542 188 q 608 160 581 188 q 635 94 635 132 q 608 27 635 54 q 542 0 581 0 l 144 0 q 80 27 108 0 q 51 94 51 54 l 51 793 q 78 858 51 829 q 144 888 104 888 l 542 888 q 608 860 581 888 q 635 793 635 832 q 608 726 635 753 q 542 700 581 700 l 236 700 l 236 542 l 449 542 q 514 514 486 542 q 542 447 542 486 q 514 381 542 408 q 449 354 486 354 l 236 354 l 236 188 l 542 188 m 313 -318 q 258 -307 283 -318 q 214 -277 233 -296 q 183 -233 194 -258 q 172 -178 172 -207 q 179 -133 172 -154 q 200 -93 186 -111 q 245 -53 218 -69 q 306 -36 272 -37 l 306 75 q 319 101 306 88 q 353 115 332 115 q 385 101 372 115 q 399 75 399 88 l 399 -83 l 399 -87 q 385 -117 399 -106 q 353 -131 371 -129 l 307 -131 q 277 -147 289 -133 q 265 -178 265 -160 q 279 -212 265 -199 q 313 -226 293 -226 q 347 -212 333 -226 q 361 -178 361 -199 q 375 -145 361 -158 q 408 -132 389 -132 q 440 -143 426 -132 q 454 -172 453 -154 q 444 -226 454 -200 q 415 -274 433 -253 q 371 -306 397 -294 q 313 -318 344 -318 z "},"ę":{"ha":736,"x_min":35,"x_max":708,"o":"m 371 672 q 499 644 438 672 q 606 570 560 617 q 681 463 653 524 q 708 336 708 403 q 681 279 708 300 q 614 260 654 258 l 244 260 q 371 181 290 181 q 408 185 393 181 q 435 194 424 189 q 459 204 447 200 q 486 208 471 208 q 537 192 515 207 q 569 153 558 176 q 576 104 579 131 q 551 56 572 78 q 468 13 514 25 q 371 0 422 1 q 243 24 304 -3 q 135 98 182 51 q 62 207 89 144 q 35 336 35 269 q 62 463 35 401 q 135 570 89 524 q 242 644 181 617 q 371 672 303 672 m 497 414 q 442 474 474 457 q 371 492 410 492 q 299 474 331 492 q 244 414 268 457 l 497 414 m 344 -318 q 290 -307 315 -318 q 246 -277 265 -296 q 215 -233 226 -258 q 204 -178 204 -207 q 211 -133 204 -154 q 232 -93 218 -111 q 277 -53 250 -69 q 338 -36 304 -37 l 338 75 q 351 101 338 88 q 385 115 364 115 q 417 101 404 115 q 431 75 431 88 l 431 -83 l 431 -87 q 417 -117 431 -106 q 385 -131 403 -129 l 339 -131 q 309 -147 321 -133 q 297 -178 297 -160 q 311 -212 297 -199 q 344 -226 325 -226 q 379 -212 365 -226 q 393 -178 393 -199 q 407 -145 393 -158 q 440 -132 421 -132 q 472 -143 458 -132 q 486 -172 485 -154 q 476 -226 486 -200 q 447 -274 465 -253 q 403 -306 429 -294 q 344 -318 376 -318 z "},"Ď":{"ha":856,"x_min":51,"x_max":822,"o":"m 381 888 q 689 760 557 888 q 822 444 821 633 q 693 133 822 267 q 381 0 564 0 l 146 0 q 80 27 108 0 q 51 94 51 54 l 51 793 q 78 858 51 829 q 146 888 106 888 l 381 888 m 239 699 l 239 189 l 381 189 q 562 260 485 188 q 639 444 639 332 q 561 626 635 553 q 381 699 488 700 l 239 699 m 468 1219 q 519 1240 489 1240 q 569 1219 549 1240 q 592 1167 592 1196 q 571 1117 592 1138 l 417 963 q 365 941 394 940 q 313 963 336 942 l 147 1117 q 126 1168 125 1138 q 147 1219 126 1199 q 199 1241 168 1240 q 250 1219 229 1242 l 365 1117 l 468 1219 z "},"ć":{"ha":667,"x_min":33,"x_max":631,"o":"m 371 672 q 607 575 510 672 q 628 513 631 549 q 601 453 626 476 q 538 428 576 429 q 474 453 499 426 q 371 492 431 492 q 310 478 339 492 q 260 444 282 465 q 226 394 239 422 q 214 336 214 367 q 226 276 214 304 q 261 226 239 247 q 311 192 283 204 q 371 181 339 179 q 474 218 432 181 q 538 246 499 246 q 601 218 576 246 q 621 192 614 207 q 628 160 628 176 q 624 127 629 143 q 607 99 618 111 q 500 25 558 50 q 371 0 442 0 q 240 27 301 0 q 133 100 179 54 q 60 207 88 146 q 33 336 33 268 q 60 464 33 403 q 134 571 88 525 q 242 644 181 617 q 371 672 303 672 m 604 919 q 595 846 614 879 q 539 803 576 813 l 372 757 q 301 767 335 747 q 257 826 267 788 q 266 897 247 864 q 324 940 285 929 l 492 985 q 560 976 526 994 q 604 919 594 957 z "},"Ě":{"ha":683,"x_min":51,"x_max":635,"o":"m 542 188 q 608 160 581 188 q 635 94 635 132 q 608 27 635 54 q 542 0 581 0 l 144 0 q 80 27 108 0 q 51 94 51 54 l 51 793 q 78 858 51 829 q 144 888 104 888 l 542 888 q 608 860 581 888 q 635 793 635 832 q 608 726 635 753 q 542 700 581 700 l 236 700 l 236 542 l 449 542 q 514 514 486 542 q 542 447 542 486 q 514 381 542 408 q 449 354 486 354 l 236 354 l 236 188 l 542 188 m 438 1222 q 488 1243 458 1243 q 539 1222 518 1243 q 561 1169 561 1199 q 540 1119 561 1140 l 386 965 q 335 944 364 943 q 282 965 306 944 l 117 1119 q 95 1171 94 1140 q 117 1222 96 1201 q 168 1244 138 1243 q 219 1222 199 1244 l 335 1119 l 438 1222 z "},"ś":{"ha":890,"x_min":19,"x_max":853,"o":"m 751 575 q 824 467 799 528 q 851 344 850 407 q 831 218 853 281 q 760 107 808 156 l 744 92 q 642 25 694 47 q 511 1 582 0 q 382 26 440 1 q 276 99 324 51 q 259 128 265 113 q 254 160 253 143 q 263 192 256 176 q 282 219 269 208 q 345 246 307 246 q 410 219 383 246 q 511 182 450 182 q 572 193 544 181 q 622 226 600 206 q 656 276 644 247 q 668 338 668 306 l 668 346 q 657 396 667 371 q 622 447 646 424 q 573 481 601 469 q 516 493 544 492 q 459 483 488 494 q 410 451 431 472 l 178 219 q 114 194 153 194 q 50 221 75 194 q 22 283 24 246 q 46 346 19 321 l 275 575 q 386 649 325 624 q 512 674 447 674 q 638 650 576 675 q 751 575 700 625 m 743 917 q 734 843 753 876 q 678 800 715 810 l 511 754 q 440 765 474 744 q 396 824 406 785 q 405 894 386 861 q 463 938 424 926 l 631 982 q 699 973 665 992 q 743 917 733 954 z "}}}
